<svg width="902" height="248" viewBox="0 0 902 248" fill="none" xmlns="http://www.w3.org/2000/svg">
<path d="M68.056 6.28C68.056 7.4 68.344 8.408 68.92 9.304C69.528 10.168 70.328 10.728 71.32 10.984C71.256 11.688 70.936 12.312 70.36 12.856C69.816 13.368 69.144 13.624 68.344 13.624C67.128 13.624 66.168 13.096 65.464 12.04C64.792 10.952 64.456 9.70399 64.456 8.29599C64.456 6.05599 64.984 4.12 66.04 2.488C67.128 0.855993 68.264 0.0399933 69.448 0.0399933C70.12 0.0399933 70.52 0.359993 70.648 0.999992C68.92 2.184 68.056 3.944 68.056 6.28ZM74.632 6.28C74.632 7.4 74.92 8.408 75.496 9.304C76.104 10.168 76.92 10.728 77.944 10.984C77.88 11.688 77.56 12.312 76.984 12.856C76.408 13.368 75.736 13.624 74.968 13.624C73.72 13.624 72.744 13.096 72.04 12.04C71.368 10.952 71.032 9.70399 71.032 8.29599C71.032 6.08799 71.56 4.168 72.616 2.536C73.704 0.871993 74.84 0.0399933 76.024 0.0399933C76.728 0.0399933 77.128 0.359993 77.224 0.999992C75.496 2.184 74.632 3.944 74.632 6.28ZM123.103 11.32C123.103 10.328 122.767 9.608 122.095 9.16C122.735 8.52 123.487 8.2 124.351 8.2C125.247 8.2 125.903 8.44 126.319 8.92C126.767 9.4 126.991 9.992 126.991 10.696C126.991 11.368 126.895 12.04 126.703 12.712L119.119 40.504C118.575 42.424 117.471 43.384 115.807 43.384C114.175 43.384 113.135 42.424 112.687 40.504L105.535 13.864L98.4306 40.504C97.9506 42.424 96.8466 43.384 95.1186 43.384C94.2546 43.384 93.5826 43.176 93.1026 42.76C92.6226 42.344 92.2386 41.592 91.9506 40.504L84.3186 12.568C83.9666 11.256 83.3426 10.408 82.4466 10.024C83.0226 8.808 83.9666 8.2 85.2786 8.2C86.0146 8.2 86.6226 8.456 87.1026 8.968C87.6146 9.48 88.0146 10.392 88.3026 11.704L95.3106 39.16L102.799 10.648C103.247 9.016 104.255 8.2 105.823 8.2C107.423 8.2 108.431 9.016 108.847 10.648L116.143 39.208L122.911 12.76C123.039 12.216 123.103 11.736 123.103 11.32ZM143.726 28.216C145.038 28.12 145.694 27.368 145.694 25.96C145.694 24.52 145.278 23.336 144.446 22.408C143.646 21.448 142.51 20.968 141.038 20.968C139.566 20.968 138.222 21.672 137.006 23.08C135.79 24.488 135.038 26.44 134.75 28.936L143.726 28.216ZM134.654 31C134.654 34.136 135.326 36.456 136.67 37.96C138.046 39.464 139.998 40.216 142.526 40.216C145.054 40.216 147.15 39.384 148.814 37.72C149.294 37.976 149.534 38.408 149.534 39.016C149.534 40.072 148.766 41.08 147.23 42.04C145.694 42.968 143.87 43.432 141.758 43.432C138.462 43.432 135.758 42.392 133.646 40.312C131.534 38.232 130.478 35.32 130.478 31.576C130.478 27.8 131.614 24.632 133.886 22.072C136.19 19.48 138.83 18.184 141.806 18.184C144.174 18.184 146.094 19 147.566 20.632C149.07 22.264 149.822 24.12 149.822 26.2C149.822 27.704 149.406 28.824 148.574 29.56C147.774 30.264 146.462 30.648 144.638 30.712L134.654 31ZM173.041 9.832V40.024C173.041 40.952 173.441 41.576 174.241 41.896C173.569 42.92 172.737 43.432 171.745 43.432C169.953 43.432 169.057 42.312 169.057 40.072V9.928C169.057 9 168.657 8.36 167.857 8.008C168.401 7.016 169.233 6.52 170.353 6.52C172.145 6.52 173.041 7.624 173.041 9.832ZM196.303 23.464C194.863 21.768 193.039 20.92 190.831 20.92C188.623 20.92 186.911 21.688 185.695 23.224C184.479 24.728 183.871 26.952 183.871 29.896C183.871 33.704 184.607 36.472 186.079 38.2C187.583 39.896 189.439 40.744 191.647 40.744C193.855 40.744 195.551 39.976 196.735 38.44C197.919 36.904 198.511 34.664 198.511 31.72C198.511 27.88 197.775 25.128 196.303 23.464ZM183.103 21.496C185.343 19.288 188.047 18.184 191.215 18.184C194.383 18.184 197.071 19.304 199.279 21.544C201.519 23.752 202.639 26.856 202.639 30.856C202.639 34.824 201.519 37.912 199.279 40.12C197.071 42.328 194.383 43.432 191.215 43.432C188.047 43.432 185.343 42.328 183.103 40.12C180.895 37.912 179.791 34.808 179.791 30.808C179.791 26.808 180.895 23.704 183.103 21.496ZM224.153 22.936C224.441 22.168 224.585 21.448 224.585 20.776C224.585 20.104 224.361 19.528 223.913 19.048C224.649 18.472 225.353 18.184 226.025 18.184C226.729 18.184 227.305 18.408 227.753 18.856C228.201 19.304 228.425 19.88 228.425 20.584C228.425 21.256 228.233 22.04 227.849 22.936L220.985 40.024C220.505 41.272 220.009 42.152 219.497 42.664C218.985 43.144 218.265 43.384 217.337 43.384C216.441 43.384 215.721 43.128 215.177 42.616C214.633 42.104 214.153 41.24 213.737 40.024L207.641 22.216C207.225 21.096 206.569 20.504 205.673 20.44C205.705 19.768 205.977 19.224 206.489 18.808C207.001 18.392 207.593 18.184 208.265 18.184C209.865 18.184 211.001 19.272 211.673 21.448L217.433 40.6L224.153 22.936ZM245.07 28.216C246.382 28.12 247.038 27.368 247.038 25.96C247.038 24.52 246.622 23.336 245.79 22.408C244.99 21.448 243.854 20.968 242.382 20.968C240.91 20.968 239.566 21.672 238.35 23.08C237.134 24.488 236.382 26.44 236.094 28.936L245.07 28.216ZM235.998 31C235.998 34.136 236.67 36.456 238.014 37.96C239.39 39.464 241.342 40.216 243.87 40.216C246.398 40.216 248.494 39.384 250.158 37.72C250.638 37.976 250.878 38.408 250.878 39.016C250.878 40.072 250.11 41.08 248.574 42.04C247.038 42.968 245.214 43.432 243.102 43.432C239.806 43.432 237.102 42.392 234.99 40.312C232.878 38.232 231.822 35.32 231.822 31.576C231.822 27.8 232.958 24.632 235.23 22.072C237.534 19.48 240.174 18.184 243.15 18.184C245.518 18.184 247.438 19 248.91 20.632C250.414 22.264 251.166 24.12 251.166 26.2C251.166 27.704 250.75 28.824 249.918 29.56C249.118 30.264 247.806 30.648 245.982 30.712L235.998 31ZM279.808 40.264C282.208 40.264 284.112 39.384 285.52 37.624C286.928 35.864 287.632 33.528 287.632 30.616C287.632 27.704 286.96 25.464 285.616 23.896C284.272 22.296 282.608 21.496 280.624 21.496C277.744 21.496 275.6 22.936 274.192 25.816L274.144 35.224C274.144 38.584 276.032 40.264 279.808 40.264ZM274.192 21.832C275.952 19.4 278.288 18.184 281.2 18.184C284.144 18.184 286.64 19.24 288.688 21.352C290.736 23.432 291.76 26.424 291.76 30.328C291.76 34.2 290.592 37.336 288.256 39.736C285.92 42.168 283.136 43.384 279.904 43.384C276.672 43.384 274.24 42.68 272.608 41.272C270.976 39.832 270.16 37.816 270.16 35.224L270.208 9.928C270.208 8.968 269.808 8.328 269.008 8.008C269.68 7.016 270.528 6.52 271.552 6.52C273.344 6.52 274.24 7.624 274.24 9.832L274.192 21.832ZM309.289 28.216C310.601 28.12 311.257 27.368 311.257 25.96C311.257 24.52 310.841 23.336 310.009 22.408C309.209 21.448 308.073 20.968 306.601 20.968C305.129 20.968 303.785 21.672 302.569 23.08C301.353 24.488 300.601 26.44 300.313 28.936L309.289 28.216ZM300.217 31C300.217 34.136 300.889 36.456 302.233 37.96C303.609 39.464 305.561 40.216 308.089 40.216C310.617 40.216 312.713 39.384 314.377 37.72C314.857 37.976 315.097 38.408 315.097 39.016C315.097 40.072 314.329 41.08 312.793 42.04C311.257 42.968 309.433 43.432 307.321 43.432C304.025 43.432 301.321 42.392 299.209 40.312C297.097 38.232 296.041 35.32 296.041 31.576C296.041 27.8 297.177 24.632 299.449 22.072C301.753 19.48 304.393 18.184 307.369 18.184C309.737 18.184 311.657 19 313.129 20.632C314.633 22.264 315.385 24.12 315.385 26.2C315.385 27.704 314.969 28.824 314.137 29.56C313.337 30.264 312.025 30.648 310.201 30.712L300.217 31ZM338.437 22.792C338.437 23.56 338.213 24.168 337.765 24.616C337.317 25.064 336.773 25.288 336.133 25.288C335.493 25.288 334.965 25.16 334.549 24.904C334.645 24.552 334.693 24.2 334.693 23.848C334.693 21.896 333.493 20.92 331.093 20.92C329.141 20.92 327.397 21.816 325.861 23.608C324.325 25.4 323.557 27.832 323.557 30.904C323.557 33.944 324.261 36.232 325.669 37.768C327.109 39.304 328.869 40.072 330.949 40.072C333.605 40.072 335.813 39.224 337.573 37.528C337.989 37.88 338.197 38.344 338.197 38.92C338.197 39.944 337.397 40.952 335.797 41.944C334.197 42.936 332.373 43.432 330.325 43.432C327.349 43.432 324.805 42.408 322.693 40.36C320.581 38.312 319.525 35.4 319.525 31.624C319.525 27.816 320.709 24.632 323.077 22.072C325.477 19.48 328.389 18.184 331.813 18.184C333.829 18.184 335.429 18.632 336.613 19.528C337.829 20.424 338.437 21.512 338.437 22.792ZM347.615 36.856C347.615 39.16 348.863 40.312 351.359 40.312C353.887 40.312 355.967 39.208 357.599 37V31.288C354.207 31.48 351.695 32.088 350.063 33.112C348.431 34.104 347.615 35.352 347.615 36.856ZM361.583 25.912V38.68C361.583 40.376 362.367 41.336 363.935 41.56C363.327 42.808 362.319 43.432 360.911 43.432C358.895 43.432 357.791 42.136 357.599 39.544C355.743 42.136 353.247 43.432 350.111 43.432C348.127 43.432 346.495 42.888 345.215 41.8C343.935 40.712 343.295 39.208 343.295 37.288C343.295 34.92 344.479 33.016 346.847 31.576C349.247 30.104 352.831 29.304 357.599 29.176V26.296C357.599 24.312 357.247 22.856 356.543 21.928C355.839 20.968 354.719 20.488 353.183 20.488C351.679 20.488 350.543 20.808 349.775 21.448C349.007 22.056 348.623 22.76 348.623 23.56C348.623 24.328 348.847 24.952 349.295 25.432C348.623 25.944 347.871 26.2 347.039 26.2C346.239 26.2 345.583 25.976 345.071 25.528C344.559 25.08 344.303 24.44 344.303 23.608C344.303 22.104 345.167 20.824 346.895 19.768C348.623 18.712 350.751 18.184 353.279 18.184C355.807 18.184 357.823 18.872 359.327 20.248C360.831 21.592 361.583 23.48 361.583 25.912ZM390.304 21.544V40.024C390.304 40.92 390.72 41.544 391.552 41.896C390.88 42.92 390.032 43.432 389.008 43.432C387.248 43.432 386.368 42.312 386.368 40.072V38.824C384.576 41.896 381.968 43.432 378.544 43.432C373.136 43.432 370.432 40.68 370.432 35.176V21.64C370.432 20.712 370.032 20.072 369.232 19.72C369.84 18.696 370.672 18.184 371.728 18.184C373.52 18.184 374.416 19.304 374.416 21.544V34.936C374.416 38.328 376.08 40.024 379.408 40.024C380.944 40.024 382.32 39.56 383.536 38.632C384.784 37.704 385.728 36.408 386.368 34.744V21.64C386.368 20.712 385.952 20.072 385.12 19.72C385.856 18.696 386.704 18.184 387.664 18.184C389.424 18.184 390.304 19.304 390.304 21.544ZM414.772 24.808C414.26 25.224 413.636 25.432 412.9 25.432C412.164 25.432 411.54 25.24 411.028 24.856C411.22 24.536 411.316 24.072 411.316 23.464C411.316 22.856 410.948 22.264 410.212 21.688C409.476 21.112 408.372 20.824 406.9 20.824C405.428 20.824 404.26 21.16 403.396 21.832C402.532 22.472 402.1 23.24 402.1 24.136C402.1 25.032 402.58 25.848 403.54 26.584C404.5 27.288 405.652 27.944 406.996 28.552C408.34 29.128 409.684 29.752 411.028 30.424C412.404 31.096 413.572 31.96 414.532 33.016C415.492 34.04 415.972 35.192 415.972 36.472C415.972 38.36 415.076 39.992 413.284 41.368C411.492 42.744 409.22 43.432 406.468 43.432C403.716 43.432 401.476 42.904 399.748 41.848C398.02 40.792 397.156 39.432 397.156 37.768C397.156 36.776 397.428 36.008 397.972 35.464C398.548 34.888 399.22 34.6 399.988 34.6C400.788 34.6 401.412 34.872 401.86 35.416C401.412 36.024 401.188 36.76 401.188 37.624C401.188 38.488 401.62 39.24 402.484 39.88C403.38 40.488 404.66 40.792 406.324 40.792C408.02 40.792 409.364 40.44 410.356 39.736C411.38 39 411.892 38.12 411.892 37.096C411.892 36.04 411.412 35.128 410.452 34.36C409.524 33.592 408.388 32.936 407.044 32.392C405.7 31.816 404.34 31.224 402.964 30.616C401.62 29.976 400.468 29.176 399.508 28.216C398.58 27.256 398.116 26.168 398.116 24.952C398.116 23.032 398.948 21.432 400.612 20.152C402.276 18.84 404.308 18.184 406.708 18.184C409.14 18.184 411.22 18.632 412.948 19.528C414.676 20.392 415.54 21.544 415.54 22.984C415.572 23.752 415.316 24.36 414.772 24.808ZM434.257 28.216C435.569 28.12 436.225 27.368 436.225 25.96C436.225 24.52 435.809 23.336 434.977 22.408C434.177 21.448 433.041 20.968 431.569 20.968C430.097 20.968 428.753 21.672 427.537 23.08C426.321 24.488 425.569 26.44 425.281 28.936L434.257 28.216ZM425.185 31C425.185 34.136 425.857 36.456 427.201 37.96C428.577 39.464 430.529 40.216 433.057 40.216C435.585 40.216 437.681 39.384 439.345 37.72C439.825 37.976 440.065 38.408 440.065 39.016C440.065 40.072 439.297 41.08 437.761 42.04C436.225 42.968 434.401 43.432 432.289 43.432C428.993 43.432 426.289 42.392 424.177 40.312C422.065 38.232 421.009 35.32 421.009 31.576C421.009 27.8 422.145 24.632 424.417 22.072C426.721 19.48 429.361 18.184 432.337 18.184C434.705 18.184 436.625 19 438.097 20.632C439.601 22.264 440.353 24.12 440.353 26.2C440.353 27.704 439.937 28.824 439.105 29.56C438.305 30.264 436.993 30.648 435.169 30.712L425.185 31ZM486.276 11.512V40.024C486.276 40.952 486.676 41.576 487.476 41.896C486.836 42.92 486.004 43.432 484.98 43.432C483.188 43.432 482.292 42.312 482.292 40.072V27.256H463.812V40.024C463.812 40.92 464.196 41.544 464.964 41.896C464.324 42.92 463.476 43.432 462.42 43.432C460.66 43.432 459.78 42.312 459.78 40.072V11.56C459.78 10.664 459.38 10.04 458.58 9.68799C459.156 8.69599 459.988 8.2 461.076 8.2C462.9 8.2 463.812 9.304 463.812 11.512V24.328H482.292V11.56C482.292 10.664 481.892 10.04 481.092 9.68799C481.668 8.69599 482.5 8.2 483.588 8.2C485.38 8.2 486.276 9.304 486.276 11.512ZM506.726 28.216C508.038 28.12 508.694 27.368 508.694 25.96C508.694 24.52 508.278 23.336 507.446 22.408C506.646 21.448 505.51 20.968 504.038 20.968C502.566 20.968 501.222 21.672 500.006 23.08C498.79 24.488 498.038 26.44 497.75 28.936L506.726 28.216ZM497.654 31C497.654 34.136 498.326 36.456 499.67 37.96C501.046 39.464 502.998 40.216 505.526 40.216C508.054 40.216 510.15 39.384 511.814 37.72C512.294 37.976 512.534 38.408 512.534 39.016C512.534 40.072 511.766 41.08 510.23 42.04C508.694 42.968 506.87 43.432 504.758 43.432C501.462 43.432 498.758 42.392 496.646 40.312C494.534 38.232 493.478 35.32 493.478 31.576C493.478 27.8 494.614 24.632 496.886 22.072C499.19 19.48 501.83 18.184 504.806 18.184C507.174 18.184 509.094 19 510.566 20.632C512.07 22.264 512.822 24.12 512.822 26.2C512.822 27.704 512.406 28.824 511.574 29.56C510.774 30.264 509.462 30.648 507.638 30.712L497.654 31ZM533.545 20.68V14.152C533.545 11.688 534.217 9.8 535.561 8.488C536.937 7.176 538.585 6.52 540.505 6.52C542.457 6.52 543.961 6.904 545.017 7.672C546.105 8.44 546.649 9.352 546.649 10.408C546.649 11.048 546.393 11.48 545.881 11.704C544.601 10.232 543.097 9.496 541.369 9.496C540.217 9.496 539.289 9.864 538.585 10.6C537.913 11.336 537.577 12.456 537.577 13.96V20.68H545.113C545.305 20.904 545.401 21.192 545.401 21.544C545.401 23.016 543.017 23.752 538.249 23.752H537.577V49.096C537.577 51.016 537.161 52.456 536.329 53.416C535.529 54.408 534.505 54.904 533.257 54.904C531.529 54.904 530.313 54.088 529.609 52.456C531.081 52.456 532.105 52.12 532.681 51.448C533.257 50.808 533.545 49.72 533.545 48.184V23.704C530.729 23.544 529.321 22.92 529.321 21.832C529.321 21.384 529.529 20.92 529.945 20.44C530.681 20.6 531.753 20.68 533.161 20.68H533.545ZM550.903 7.96C551.735 7.96 552.407 8.2 552.919 8.68C553.463 9.128 553.735 9.768 553.735 10.6C553.735 11.4 553.383 12.136 552.679 12.808C552.007 13.448 551.239 13.768 550.375 13.768C549.511 13.768 548.807 13.512 548.263 13C547.719 12.488 547.447 11.816 547.447 10.984C547.447 10.152 547.815 9.44799 548.551 8.87199C549.319 8.26399 550.103 7.96 550.903 7.96ZM552.775 21.544V40.024C552.775 40.952 553.175 41.576 553.975 41.896C553.303 42.92 552.471 43.432 551.479 43.432C549.687 43.432 548.791 42.312 548.791 40.072V21.64C548.791 20.712 548.391 20.072 547.591 19.72C548.199 18.696 549.031 18.184 550.087 18.184C551.879 18.184 552.775 19.304 552.775 21.544ZM565.478 21.544V23.32C566.822 19.896 569.046 18.184 572.15 18.184C573.654 18.184 574.822 18.568 575.654 19.336C576.486 20.104 576.902 21 576.902 22.024C576.902 23.016 576.646 23.784 576.134 24.328C575.622 24.84 575.094 25.096 574.55 25.096C574.006 25.096 573.51 25.032 573.062 24.904C573.126 24.584 573.158 24.168 573.158 23.656C573.158 22.056 572.358 21.256 570.758 21.256C569.702 21.256 568.662 21.784 567.638 22.84C566.614 23.896 565.894 25.512 565.478 27.688V40.024C565.478 40.952 565.878 41.576 566.678 41.896C566.006 42.92 565.174 43.432 564.182 43.432C562.39 43.432 561.494 42.312 561.494 40.072V21.64C561.494 20.712 561.094 20.072 560.294 19.72C560.902 18.696 561.734 18.184 562.79 18.184C564.582 18.184 565.478 19.304 565.478 21.544ZM597.537 24.808C597.025 25.224 596.401 25.432 595.665 25.432C594.929 25.432 594.305 25.24 593.793 24.856C593.985 24.536 594.081 24.072 594.081 23.464C594.081 22.856 593.713 22.264 592.977 21.688C592.241 21.112 591.137 20.824 589.665 20.824C588.193 20.824 587.025 21.16 586.161 21.832C585.297 22.472 584.865 23.24 584.865 24.136C584.865 25.032 585.345 25.848 586.305 26.584C587.265 27.288 588.417 27.944 589.761 28.552C591.105 29.128 592.449 29.752 593.793 30.424C595.169 31.096 596.337 31.96 597.297 33.016C598.257 34.04 598.737 35.192 598.737 36.472C598.737 38.36 597.841 39.992 596.049 41.368C594.257 42.744 591.985 43.432 589.233 43.432C586.481 43.432 584.241 42.904 582.513 41.848C580.785 40.792 579.921 39.432 579.921 37.768C579.921 36.776 580.193 36.008 580.737 35.464C581.313 34.888 581.985 34.6 582.753 34.6C583.553 34.6 584.177 34.872 584.625 35.416C584.177 36.024 583.953 36.76 583.953 37.624C583.953 38.488 584.385 39.24 585.249 39.88C586.145 40.488 587.425 40.792 589.089 40.792C590.785 40.792 592.129 40.44 593.121 39.736C594.145 39 594.657 38.12 594.657 37.096C594.657 36.04 594.177 35.128 593.217 34.36C592.289 33.592 591.153 32.936 589.809 32.392C588.465 31.816 587.105 31.224 585.729 30.616C584.385 29.976 583.233 29.176 582.273 28.216C581.345 27.256 580.881 26.168 580.881 24.952C580.881 23.032 581.713 21.432 583.377 20.152C585.041 18.84 587.073 18.184 589.473 18.184C591.905 18.184 593.985 18.632 595.713 19.528C597.441 20.392 598.305 21.544 598.305 22.984C598.337 23.752 598.081 24.36 597.537 24.808ZM609.823 21.688V36.904C609.823 38.088 610.047 38.936 610.495 39.448C610.975 39.96 611.743 40.216 612.799 40.216C614.783 40.216 616.655 39.368 618.415 37.672C618.959 37.96 619.231 38.424 619.231 39.064C619.231 40.152 618.527 41.16 617.119 42.088C615.711 42.984 613.983 43.432 611.935 43.432C607.839 43.432 605.791 41.304 605.791 37.048V21.688C603.199 21.592 601.903 20.968 601.903 19.816C601.903 19.208 602.095 18.744 602.479 18.424C603.599 18.584 604.463 18.664 605.071 18.664H605.791V14.776C605.791 13.88 605.391 13.24 604.591 12.856C605.231 11.864 606.063 11.368 607.087 11.368C608.911 11.368 609.823 12.488 609.823 14.728V18.664H617.887C618.015 18.888 618.079 19.16 618.079 19.48C618.079 20.952 615.551 21.688 610.495 21.688H609.823ZM641.978 9.832V40.024C641.978 40.952 642.378 41.576 643.178 41.896C642.506 42.92 641.674 43.432 640.682 43.432C638.89 43.432 637.994 42.312 637.994 40.072V9.928C637.994 9 637.594 8.36 636.794 8.008C637.338 7.016 638.17 6.52 639.29 6.52C641.082 6.52 641.978 7.624 641.978 9.832ZM665.24 23.464C663.8 21.768 661.976 20.92 659.768 20.92C657.56 20.92 655.848 21.688 654.632 23.224C653.416 24.728 652.808 26.952 652.808 29.896C652.808 33.704 653.544 36.472 655.016 38.2C656.52 39.896 658.376 40.744 660.584 40.744C662.792 40.744 664.488 39.976 665.672 38.44C666.856 36.904 667.448 34.664 667.448 31.72C667.448 27.88 666.712 25.128 665.24 23.464ZM652.04 21.496C654.28 19.288 656.984 18.184 660.152 18.184C663.32 18.184 666.008 19.304 668.216 21.544C670.456 23.752 671.576 26.856 671.576 30.856C671.576 34.824 670.456 37.912 668.216 40.12C666.008 42.328 663.32 43.432 660.152 43.432C656.984 43.432 654.28 42.328 652.04 40.12C649.832 37.912 648.728 34.808 648.728 30.808C648.728 26.808 649.832 23.704 652.04 21.496ZM693.091 22.936C693.379 22.168 693.523 21.448 693.523 20.776C693.523 20.104 693.299 19.528 692.851 19.048C693.587 18.472 694.291 18.184 694.963 18.184C695.667 18.184 696.243 18.408 696.691 18.856C697.139 19.304 697.363 19.88 697.363 20.584C697.363 21.256 697.171 22.04 696.787 22.936L689.923 40.024C689.443 41.272 688.947 42.152 688.435 42.664C687.923 43.144 687.203 43.384 686.275 43.384C685.379 43.384 684.659 43.128 684.115 42.616C683.571 42.104 683.091 41.24 682.675 40.024L676.579 22.216C676.163 21.096 675.507 20.504 674.611 20.44C674.643 19.768 674.915 19.224 675.427 18.808C675.939 18.392 676.531 18.184 677.203 18.184C678.803 18.184 679.939 19.272 680.611 21.448L686.371 40.6L693.091 22.936ZM714.007 28.216C715.319 28.12 715.975 27.368 715.975 25.96C715.975 24.52 715.559 23.336 714.727 22.408C713.927 21.448 712.791 20.968 711.319 20.968C709.847 20.968 708.503 21.672 707.287 23.08C706.071 24.488 705.319 26.44 705.031 28.936L714.007 28.216ZM704.935 31C704.935 34.136 705.607 36.456 706.951 37.96C708.327 39.464 710.279 40.216 712.807 40.216C715.335 40.216 717.431 39.384 719.095 37.72C719.575 37.976 719.815 38.408 719.815 39.016C719.815 40.072 719.047 41.08 717.511 42.04C715.975 42.968 714.151 43.432 712.039 43.432C708.743 43.432 706.039 42.392 703.927 40.312C701.815 38.232 700.759 35.32 700.759 31.576C700.759 27.8 701.895 24.632 704.167 22.072C706.471 19.48 709.111 18.184 712.087 18.184C714.455 18.184 716.375 19 717.847 20.632C719.351 22.264 720.103 24.12 720.103 26.2C720.103 27.704 719.687 28.824 718.855 29.56C718.055 30.264 716.743 30.648 714.919 30.712L704.935 31ZM741.092 23.176C739.652 21.832 737.892 21.16 735.812 21.16C733.764 21.16 732.004 22.056 730.532 23.848C729.092 25.608 728.372 28.024 728.372 31.096C728.372 34.168 728.996 36.472 730.244 38.008C731.524 39.544 733.124 40.312 735.044 40.312C738.276 40.312 740.292 38.488 741.092 34.84V23.176ZM745.124 9.832V40.024C745.124 40.952 745.524 41.576 746.324 41.896C745.652 42.92 744.804 43.432 743.78 43.432C741.988 43.432 741.092 42.312 741.092 40.072V39.304C739.652 42.056 737.348 43.432 734.18 43.432C731.492 43.432 729.14 42.36 727.124 40.216C725.108 38.04 724.1 35.048 724.1 31.24C724.1 27.4 725.188 24.264 727.364 21.832C729.54 19.4 732.164 18.184 735.236 18.184C737.412 18.184 739.364 18.728 741.092 19.816V9.928C741.092 8.968 740.692 8.328 739.892 8.008C740.5 7.016 741.332 6.52 742.388 6.52C744.212 6.52 745.124 7.624 745.124 9.832ZM786.726 21.544V40.024C786.726 40.92 787.142 41.544 787.974 41.896C787.302 42.92 786.454 43.432 785.43 43.432C783.67 43.432 782.79 42.312 782.79 40.072V38.824C780.998 41.896 778.39 43.432 774.966 43.432C769.558 43.432 766.854 40.68 766.854 35.176V21.64C766.854 20.712 766.454 20.072 765.654 19.72C766.262 18.696 767.094 18.184 768.15 18.184C769.942 18.184 770.838 19.304 770.838 21.544V34.936C770.838 38.328 772.502 40.024 775.83 40.024C777.366 40.024 778.742 39.56 779.958 38.632C781.206 37.704 782.15 36.408 782.79 34.744V21.64C782.79 20.712 782.374 20.072 781.542 19.72C782.278 18.696 783.126 18.184 784.086 18.184C785.846 18.184 786.726 19.304 786.726 21.544ZM811.194 24.808C810.682 25.224 810.058 25.432 809.322 25.432C808.586 25.432 807.962 25.24 807.45 24.856C807.642 24.536 807.738 24.072 807.738 23.464C807.738 22.856 807.37 22.264 806.634 21.688C805.898 21.112 804.794 20.824 803.322 20.824C801.85 20.824 800.682 21.16 799.818 21.832C798.954 22.472 798.522 23.24 798.522 24.136C798.522 25.032 799.002 25.848 799.962 26.584C800.922 27.288 802.074 27.944 803.418 28.552C804.762 29.128 806.106 29.752 807.45 30.424C808.826 31.096 809.994 31.96 810.954 33.016C811.914 34.04 812.394 35.192 812.394 36.472C812.394 38.36 811.498 39.992 809.706 41.368C807.914 42.744 805.642 43.432 802.89 43.432C800.138 43.432 797.898 42.904 796.17 41.848C794.442 40.792 793.578 39.432 793.578 37.768C793.578 36.776 793.85 36.008 794.394 35.464C794.97 34.888 795.642 34.6 796.41 34.6C797.21 34.6 797.834 34.872 798.282 35.416C797.834 36.024 797.61 36.76 797.61 37.624C797.61 38.488 798.042 39.24 798.906 39.88C799.802 40.488 801.082 40.792 802.746 40.792C804.442 40.792 805.786 40.44 806.778 39.736C807.802 39 808.314 38.12 808.314 37.096C808.314 36.04 807.834 35.128 806.874 34.36C805.946 33.592 804.81 32.936 803.466 32.392C802.122 31.816 800.762 31.224 799.386 30.616C798.042 29.976 796.89 29.176 795.93 28.216C795.002 27.256 794.538 26.168 794.538 24.952C794.538 23.032 795.37 21.432 797.034 20.152C798.698 18.84 800.73 18.184 803.13 18.184C805.562 18.184 807.642 18.632 809.37 19.528C811.098 20.392 811.962 21.544 811.962 22.984C811.994 23.752 811.738 24.36 811.194 24.808ZM820.263 7.336C820.263 6.216 819.959 5.224 819.351 4.36C818.743 3.464 817.943 2.888 816.951 2.632C817.015 1.928 817.319 1.32 817.863 0.807992C818.439 0.295993 819.127 0.0399933 819.927 0.0399933C821.143 0.0399933 822.087 0.567993 822.759 1.624C823.463 2.68 823.815 3.912 823.815 5.32C823.815 7.56 823.287 9.51199 822.231 11.176C821.175 12.808 820.071 13.624 818.919 13.624C818.215 13.624 817.815 13.304 817.719 12.664C819.415 11.448 820.263 9.672 820.263 7.336ZM829.911 7.336C829.911 6.248 829.607 5.256 828.999 4.36C828.391 3.464 827.591 2.888 826.599 2.632C826.663 1.928 826.967 1.32 827.511 0.807992C828.087 0.295993 828.775 0.0399933 829.575 0.0399933C830.791 0.0399933 831.735 0.567993 832.407 1.624C833.111 2.68 833.463 3.912 833.463 5.32C833.463 7.56 832.935 9.51199 831.879 11.176C830.823 12.808 829.703 13.624 828.519 13.624C827.815 13.624 827.415 13.304 827.319 12.664C829.047 11.416 829.911 9.64 829.911 7.336ZM459.824 98.808H474.512C474.576 99.064 474.608 99.352 474.608 99.672C474.608 101.336 473.408 102.168 471.008 102.168H456.464C456.304 101.848 456.224 101.544 456.224 101.256C456.224 99.624 457.424 98.808 459.824 98.808ZM501.747 86.472V114.024C501.747 114.952 502.147 115.576 502.947 115.896C502.307 116.92 501.475 117.432 500.451 117.432C498.627 117.432 497.715 116.312 497.715 114.072V87.288C497.715 86.168 497.171 85.608 496.083 85.608C494.995 85.608 493.779 86.024 492.435 86.856C491.987 86.696 491.763 86.376 491.763 85.896C491.763 85.128 492.387 84.328 493.635 83.496C494.915 82.632 496.243 82.2 497.618 82.2C498.995 82.2 500.019 82.584 500.691 83.352C501.395 84.12 501.747 85.16 501.747 86.472ZM535.589 85.512V109.944C535.589 112.312 534.901 114.152 533.525 115.464C532.149 116.744 530.405 117.384 528.293 117.384C526.213 117.384 524.597 117.064 523.445 116.424C522.325 115.752 521.765 115.016 521.765 114.216C521.765 113.416 521.957 112.824 522.341 112.44C523.845 113.496 525.573 114.024 527.525 114.024C530.213 114.024 531.557 112.696 531.557 110.04V85.56C531.557 84.632 531.157 84.008 530.357 83.688C530.997 82.696 531.845 82.2 532.901 82.2C534.693 82.2 535.589 83.304 535.589 85.512ZM558.412 97.464C556.972 95.768 555.148 94.92 552.94 94.92C550.732 94.92 549.02 95.688 547.804 97.224C546.588 98.728 545.98 100.952 545.98 103.896C545.98 107.704 546.716 110.472 548.188 112.2C549.692 113.896 551.548 114.744 553.756 114.744C555.964 114.744 557.66 113.976 558.844 112.44C560.028 110.904 560.62 108.664 560.62 105.72C560.62 101.88 559.884 99.128 558.412 97.464ZM545.212 95.496C547.452 93.288 550.156 92.184 553.324 92.184C556.492 92.184 559.18 93.304 561.388 95.544C563.628 97.752 564.748 100.856 564.748 104.856C564.748 108.824 563.628 111.912 561.388 114.12C559.18 116.328 556.492 117.432 553.324 117.432C550.156 117.432 547.452 116.328 545.212 114.12C543.004 111.912 541.9 108.808 541.9 104.808C541.9 100.808 543.004 97.704 545.212 95.496ZM591.351 100.44V114.024C591.351 114.92 591.767 115.544 592.599 115.896C591.927 116.92 591.079 117.432 590.055 117.432C588.295 117.432 587.415 116.312 587.415 114.072V100.728C587.415 97.368 585.943 95.688 582.999 95.688C581.399 95.688 579.879 96.328 578.439 97.608C576.999 98.888 576.007 100.6 575.463 102.744V114.024C575.463 114.952 575.863 115.576 576.663 115.896C575.991 116.92 575.159 117.432 574.167 117.432C572.375 117.432 571.479 116.312 571.479 114.072V83.928C571.479 83 571.079 82.36 570.279 82.008C570.823 81.016 571.655 80.52 572.775 80.52C574.567 80.52 575.463 81.624 575.463 83.832V98.04C576.295 96.312 577.479 94.904 579.015 93.816C580.551 92.728 582.343 92.184 584.391 92.184C586.471 92.184 588.151 92.888 589.431 94.296C590.711 95.672 591.351 97.72 591.351 100.44ZM619.851 100.44V114.024C619.851 114.92 620.267 115.544 621.099 115.896C620.427 116.92 619.579 117.432 618.555 117.432C616.795 117.432 615.915 116.312 615.915 114.072V100.728C615.915 97.368 614.443 95.688 611.499 95.688C609.899 95.688 608.379 96.328 606.939 97.608C605.499 98.888 604.507 100.6 603.963 102.744V114.024C603.963 114.952 604.363 115.576 605.163 115.896C604.491 116.92 603.659 117.432 602.667 117.432C600.875 117.432 599.979 116.312 599.979 114.072V95.64C599.979 94.712 599.579 94.072 598.779 93.72C599.387 92.696 600.219 92.184 601.275 92.184C603.067 92.184 603.963 93.304 603.963 95.544V98.04C604.795 96.312 605.979 94.904 607.515 93.816C609.051 92.728 610.843 92.184 612.891 92.184C614.971 92.184 616.651 92.888 617.931 94.296C619.211 95.672 619.851 97.72 619.851 100.44ZM644.245 105.96H654.469V88.056C654.469 87.544 654.277 87.288 653.893 87.288C653.285 87.288 652.085 88.408 650.293 90.648C648.501 92.888 646.805 95.448 645.205 98.328C643.637 101.208 642.853 103.384 642.853 104.856C642.853 105.592 643.317 105.96 644.245 105.96ZM658.453 105.96H660.517C662.117 105.96 663.237 105.672 663.877 105.096C664.229 105.512 664.405 106.056 664.405 106.728C664.405 107.4 664.005 107.944 663.205 108.36C662.405 108.776 661.333 108.984 659.989 108.984H658.453V114.024C658.453 114.92 658.853 115.544 659.653 115.896C659.077 116.92 658.245 117.432 657.157 117.432C655.365 117.432 654.469 116.312 654.469 114.072V108.984H643.621C641.029 108.984 639.733 107.912 639.733 105.768C639.733 104.168 640.341 102.024 641.557 99.336C642.805 96.616 644.277 94.008 645.973 91.512C647.669 88.984 649.477 86.808 651.397 84.984C653.349 83.128 654.949 82.2 656.197 82.2C657.701 82.2 658.453 83.208 658.453 85.224V105.96ZM686.504 92.616C687.368 92.616 688.04 92.872 688.52 93.384C689 93.864 689.24 94.536 689.24 95.4C689.24 96.232 688.872 97.016 688.136 97.752C687.4 98.456 686.6 98.808 685.736 98.808C684.904 98.808 684.232 98.568 683.72 98.088C683.24 97.608 683 96.952 683 96.12C683 95.256 683.368 94.456 684.104 93.72C684.872 92.984 685.672 92.616 686.504 92.616ZM686.504 110.712C687.368 110.712 688.04 110.968 688.52 111.48C689 111.96 689.24 112.616 689.24 113.448C689.24 114.28 688.872 115.064 688.136 115.8C687.4 116.536 686.6 116.904 685.736 116.904C684.904 116.904 684.232 116.664 683.72 116.184C683.24 115.672 683 115 683 114.168C683 113.336 683.368 112.552 684.104 111.816C684.872 111.08 685.672 110.712 686.504 110.712ZM717.84 86.472V114.024C717.84 114.952 718.24 115.576 719.04 115.896C718.4 116.92 717.568 117.432 716.544 117.432C714.72 117.432 713.808 116.312 713.808 114.072V87.288C713.808 86.168 713.264 85.608 712.176 85.608C711.088 85.608 709.872 86.024 708.528 86.856C708.08 86.696 707.856 86.376 707.856 85.896C707.856 85.128 708.48 84.328 709.728 83.496C711.008 82.632 712.336 82.2 713.712 82.2C715.088 82.2 716.112 82.584 716.784 83.352C717.488 84.12 717.84 85.16 717.84 86.472ZM748.156 97.416C748.156 100.776 747.404 103.992 745.9 107.064C744.396 110.136 742.316 112.632 739.66 114.552C737.036 116.472 734.204 117.432 731.164 117.432C730.556 117.432 730.028 117.304 729.58 117.048C729.164 116.824 728.956 116.552 728.956 116.232C728.956 115.912 728.972 115.72 729.004 115.656C733.292 115.24 736.876 113.4 739.756 110.136C742.668 106.84 744.124 102.856 744.124 98.184C744.124 93.416 742.812 89.768 740.188 87.24C738.716 85.864 737.02 85.176 735.1 85.176C733.18 85.176 731.628 85.736 730.444 86.856C729.26 87.976 728.668 89.512 728.668 91.464C728.668 94.408 729.756 96.712 731.932 98.376C733.788 99.784 735.996 100.488 738.556 100.488C739.004 100.488 739.452 100.472 739.9 100.44C739.9 101.464 739.5 102.248 738.7 102.792C737.932 103.304 736.988 103.56 735.868 103.56C732.764 103.56 730.172 102.488 728.092 100.344C726.044 98.168 725.02 95.56 725.02 92.52C725.02 89.48 726.028 87 728.044 85.08C730.092 83.16 732.604 82.2 735.58 82.2C739.484 82.2 742.556 83.624 744.796 86.472C747.036 89.32 748.156 92.968 748.156 97.416Z" fill="#A59D9B"/>
<path d="M897.681 148.011C879.681 156.211 858.381 151.811 839.281 154.511C825.981 156.411 812.081 158.311 800.181 164.711C799.581 164.711 798.981 164.911 798.481 165.411C798.281 165.611 798.181 165.811 797.981 165.911C797.581 166.111 797.181 166.311 796.881 166.611C796.081 167.111 795.781 167.911 795.781 168.711C760.681 168.011 726.481 174.111 688.481 182.811C689.181 182.311 689.881 181.911 690.481 181.411C707.781 169.311 716.681 154.711 725.081 135.611C726.281 132.911 722.381 131.711 720.881 133.611C708.181 148.811 687.181 154.011 671.081 164.811C659.881 172.311 648.281 180.011 640.281 190.911C639.781 191.111 639.281 191.611 639.081 192.311C638.981 192.511 638.881 192.811 638.881 193.011C638.681 193.411 638.381 193.711 638.181 194.111C637.981 194.411 637.981 194.611 637.881 194.911C623.781 198.311 609.081 201.711 593.481 205.111C559.881 212.411 529.481 215.611 500.381 215.711C504.281 214.511 508.081 213.011 511.481 211.311C530.481 202.111 541.681 189.211 552.981 171.611C554.581 169.211 550.981 167.311 549.081 168.911C534.081 181.911 512.481 183.611 494.881 191.711C482.581 197.311 469.881 203.011 460.281 212.511C459.681 212.611 459.181 213.011 458.881 213.711C458.881 213.711 458.881 213.811 458.781 213.811C418.081 210.111 378.481 201.011 334.581 189.611C339.281 189.511 344.081 188.811 348.381 187.811C368.981 183.311 382.881 173.311 397.981 158.811C400.081 156.811 396.981 154.211 394.881 155.311C377.281 164.411 355.881 161.111 336.881 164.911C323.681 167.511 309.981 170.111 298.381 177.111C297.781 177.111 297.181 177.311 296.681 177.911C296.481 178.111 296.381 178.311 296.181 178.511C295.881 178.711 295.481 178.911 295.181 179.211C284.381 176.311 273.281 173.411 261.881 170.411C240.981 165.011 220.281 162.611 200.481 162.211C206.681 160.611 212.781 157.411 217.881 154.211C235.681 142.911 245.281 128.811 254.581 110.011C255.881 107.411 252.081 106.011 250.481 107.811C237.081 122.411 215.881 126.611 199.281 136.611C187.781 143.611 175.781 150.711 167.281 161.311C166.681 161.511 166.281 161.911 165.981 162.711C165.881 162.911 165.781 163.211 165.681 163.411C165.581 163.511 165.581 163.611 165.481 163.711C136.281 166.611 110.181 173.211 89.3806 180.111C79.4806 183.411 70.2806 186.911 61.9806 190.311C66.5806 186.711 70.6806 182.111 73.9806 177.811C86.6806 161.011 90.6806 144.411 92.7806 123.611C93.0806 120.711 89.0806 120.711 88.0806 123.011C80.6806 141.411 62.2806 152.811 50.2806 168.011C41.8806 178.611 33.1806 189.511 28.9806 202.411C28.5806 202.811 28.2806 203.411 28.2806 204.111C28.2806 204.311 28.2806 204.611 28.2806 204.811C28.1806 205.211 28.0806 205.611 27.8806 206.111C27.8806 206.311 27.7806 206.411 27.7806 206.611C18.6806 211.511 13.4806 214.811 13.3806 214.911C11.9806 215.811 11.5806 217.711 12.4806 219.011C13.3806 220.411 15.2806 220.811 16.5806 219.911C16.8806 219.711 46.4806 200.711 91.1806 185.911C91.6806 185.711 92.1806 185.611 92.6806 185.411C93.1806 186.111 93.9806 186.511 95.0806 186.211C95.2806 186.111 95.4806 186.111 95.6806 186.011C104.481 188.111 110.681 195.311 117.981 200.211C124.581 204.611 133.381 206.811 141.081 207.811C161.981 210.611 178.481 205.911 197.581 197.611C200.281 196.411 198.281 192.911 195.881 193.211C176.281 195.811 157.281 185.311 138.081 182.311C129.681 181.011 121.181 179.611 112.681 179.411C148.981 169.811 196.081 163.411 245.381 172.911C245.381 173.911 245.981 174.911 247.281 175.111C247.481 175.111 247.681 175.211 247.881 175.211C255.081 180.711 257.881 189.711 262.681 197.211C266.981 203.911 274.181 209.411 280.781 213.411C298.781 224.311 315.781 226.611 336.681 226.611C339.581 226.611 339.181 222.611 336.881 221.911C317.881 216.411 304.581 199.311 288.281 188.811C283.381 185.711 278.281 182.411 273.181 179.611C282.081 181.911 290.681 184.211 299.181 186.511C331.081 195.011 360.281 202.711 388.681 208.811C389.081 209.411 389.681 209.911 390.681 209.911C390.881 209.911 391.081 209.911 391.281 209.911C399.381 214.011 403.781 222.411 409.781 228.811C415.181 234.611 423.281 238.711 430.581 241.411C450.281 248.911 467.381 248.111 487.881 244.311C490.781 243.811 489.581 239.911 487.181 239.611C468.681 237.811 453.381 224.911 436.781 217.311C456.981 220.111 477.281 221.611 498.281 221.611C521.681 221.611 546.081 219.611 572.181 215.211C572.681 215.511 573.281 215.611 573.981 215.411C574.181 215.311 574.381 215.311 574.581 215.211C583.481 217.011 589.881 224.011 597.381 228.711C604.081 232.911 612.981 234.711 620.681 235.511C641.681 237.611 657.981 232.411 676.781 223.411C679.381 222.111 677.281 218.711 674.881 219.111C655.381 222.311 635.981 212.511 616.781 210.211C612.681 209.711 608.581 209.211 604.381 208.811C622.181 204.811 638.781 200.811 654.881 197.011C676.881 191.711 697.181 186.911 716.381 183.011C716.781 183.211 717.381 183.211 717.881 183.011C718.081 182.911 718.281 182.911 718.481 182.811C727.381 184.611 733.781 191.611 741.281 196.311C747.981 200.511 756.881 202.311 764.581 203.111C785.581 205.211 801.881 200.011 820.681 191.011C823.281 189.711 821.181 186.311 818.781 186.711C799.281 189.911 779.881 180.111 760.681 177.811C758.181 177.511 755.781 177.211 753.281 176.911C776.681 174.011 799.281 173.511 822.781 176.511C823.681 176.811 824.581 177.111 825.581 177.411C829.581 178.611 834.081 179.011 838.481 179.011C855.281 182.211 872.781 187.311 891.581 194.711C893.081 195.311 894.881 194.611 895.481 193.011C896.081 191.511 895.381 189.711 893.781 189.111C880.581 183.911 867.981 179.811 855.681 176.711C873.481 172.611 886.581 163.811 900.881 151.511C902.881 149.811 899.981 147.011 897.681 148.011ZM67.5806 155.611C68.5806 154.611 69.6806 153.611 70.6806 152.611C70.2806 154.711 72.8806 156.911 74.5806 154.911C74.7806 154.611 75.0806 154.311 75.2806 154.011C75.0806 154.411 74.9806 154.711 74.7806 155.111C73.4806 157.911 77.5806 160.311 78.8806 157.511C79.0806 157.011 79.3806 156.511 79.5806 156.011C79.7806 156.111 80.0806 156.211 80.2806 156.311C76.9806 164.411 72.4806 172.011 66.0806 179.511C59.5806 187.211 50.4806 190.311 42.1806 194.311C43.9806 192.511 45.7806 190.811 47.8806 189.111C54.0806 184.011 59.3806 179.011 63.9806 172.411C65.6806 169.911 61.5806 167.511 59.8806 170.011C55.5806 176.311 50.4806 181.011 44.5806 185.811C42.5806 187.411 40.6806 189.111 38.8806 190.911C46.1806 177.611 57.3806 165.511 67.5806 155.611ZM157.281 191.711C158.681 192.111 160.081 192.511 161.481 192.911C159.381 193.611 158.881 196.911 161.381 197.411C161.781 197.511 162.081 197.511 162.481 197.611C162.081 197.611 161.681 197.711 161.281 197.711C158.281 197.911 158.181 202.711 161.181 202.411C161.681 202.411 162.281 202.311 162.781 202.311C162.781 202.611 162.781 202.811 162.881 203.111C154.281 204.211 145.381 204.011 135.681 202.111C125.781 200.211 118.681 193.811 110.981 188.611C113.481 189.211 115.881 190.011 118.281 191.011C125.781 193.911 132.681 196.111 140.781 196.811C143.881 197.111 143.881 192.311 140.881 192.111C133.181 191.411 126.681 189.311 119.581 186.511C117.181 185.511 114.781 184.711 112.281 184.111C127.681 183.911 143.681 187.711 157.281 191.711ZM780.281 186.411C781.681 186.811 783.081 187.111 784.481 187.511C782.481 188.211 781.981 191.611 784.581 192.011C784.981 192.111 785.381 192.111 785.681 192.211C785.281 192.211 784.881 192.311 784.481 192.311C781.481 192.611 781.481 197.411 784.581 197.011C785.081 196.911 785.681 196.911 786.181 196.811C786.181 197.111 786.181 197.311 786.281 197.611C777.681 199.011 768.781 199.111 759.081 197.511C749.181 195.911 741.781 189.811 733.981 184.811C736.481 185.411 738.881 186.111 741.381 187.011C748.981 189.711 755.981 191.611 764.081 192.011C767.181 192.211 767.081 187.411 763.981 187.311C756.281 186.911 749.681 185.011 742.481 182.411C740.081 181.511 737.581 180.811 735.181 180.211C750.381 179.611 766.481 182.911 780.281 186.411ZM691.581 158.411C692.881 157.811 694.181 157.111 695.481 156.511C694.381 158.411 696.281 161.211 698.481 159.811C698.781 159.611 699.081 159.411 699.481 159.211C699.181 159.511 698.981 159.811 698.681 160.111C696.581 162.311 699.781 165.911 701.881 163.611C702.281 163.211 702.581 162.811 702.981 162.411C703.181 162.611 703.381 162.811 703.581 162.911C697.981 169.611 691.281 175.411 682.981 180.611C674.381 185.911 664.881 186.111 655.681 187.311C657.881 186.111 660.181 185.111 662.681 184.111C670.181 181.211 676.781 178.111 683.181 173.111C685.581 171.211 682.381 167.711 679.981 169.611C673.881 174.311 667.681 177.211 660.581 179.911C658.181 180.811 655.881 181.811 653.581 183.011C664.481 172.711 678.881 164.611 691.581 158.411ZM516.081 188.711C517.481 188.311 518.881 187.911 520.281 187.411C518.881 189.111 520.281 192.211 522.681 191.211C522.981 191.111 523.381 190.911 523.781 190.811C523.481 191.011 523.181 191.311 522.881 191.511C520.481 193.411 522.981 197.411 525.481 195.511C525.881 195.211 526.381 194.811 526.781 194.511C526.881 194.711 527.081 194.911 527.281 195.111C520.681 200.811 513.181 205.511 504.081 209.211C494.781 213.011 485.281 211.711 476.081 211.511C478.481 210.711 480.881 210.011 483.481 209.511C491.381 207.811 498.381 205.811 505.381 201.911C508.081 200.411 505.481 196.411 502.781 197.911C495.981 201.611 489.381 203.411 481.881 204.911C479.381 205.411 476.881 206.011 474.481 206.911C487.081 198.511 502.581 192.811 516.081 188.711ZM358.181 167.111C359.681 167.011 361.081 166.911 362.481 166.811C360.781 168.111 361.381 171.511 363.981 171.011C364.381 170.911 364.781 170.911 365.081 170.811C364.681 171.011 364.381 171.111 363.981 171.311C361.181 172.611 362.781 177.011 365.581 175.811C366.081 175.611 366.581 175.411 367.081 175.111C367.181 175.311 367.281 175.611 367.481 175.811C359.781 179.811 351.381 182.611 341.581 184.211C331.681 185.811 322.781 182.311 313.781 179.911C316.281 179.711 318.881 179.611 321.481 179.711C329.481 179.911 336.781 179.511 344.581 177.411C347.581 176.611 345.981 172.111 342.981 172.911C335.581 174.911 328.681 175.211 321.081 174.911C318.481 174.811 315.981 174.911 313.381 175.111C327.681 169.911 343.981 168.011 358.181 167.111ZM219.781 131.311C221.081 130.711 222.481 130.111 223.781 129.611C222.581 131.411 224.381 134.411 226.581 133.111C226.881 132.911 227.281 132.711 227.581 132.511C227.281 132.811 226.981 133.011 226.681 133.311C224.481 135.411 227.481 139.111 229.681 137.011C230.081 136.611 230.481 136.311 230.881 135.911C231.081 136.111 231.281 136.311 231.481 136.411C225.581 142.811 218.681 148.411 210.081 153.111C201.281 158.011 191.781 157.711 182.481 158.611C184.781 157.511 187.081 156.611 189.581 155.811C197.181 153.211 203.881 150.411 210.481 145.811C212.981 144.011 209.981 140.411 207.481 142.111C201.181 146.511 194.781 149.111 187.581 151.511C185.081 152.311 182.781 153.211 180.481 154.311C192.081 144.411 206.781 137.011 219.781 131.311ZM302.081 205.211C303.181 206.111 304.281 207.111 305.381 208.011C303.281 207.811 301.381 210.611 303.481 212.111C303.781 212.311 304.081 212.511 304.381 212.711C303.981 212.611 303.681 212.411 303.281 212.311C300.381 211.311 298.381 215.611 301.281 216.611C301.781 216.811 302.281 217.011 302.781 217.111C302.681 217.311 302.581 217.611 302.581 217.811C294.181 215.411 286.181 211.611 278.081 206.011C269.781 200.311 265.781 191.611 260.881 183.711C262.881 185.311 264.781 187.011 266.581 188.811C272.281 194.511 277.781 199.211 284.881 203.111C287.581 204.611 289.481 200.211 286.881 198.811C280.081 195.111 274.981 190.611 269.581 185.211C267.781 183.411 265.881 181.611 263.881 180.111C277.981 186.211 291.181 196.111 302.081 205.211ZM449.881 229.411C451.181 230.111 452.381 230.811 453.681 231.611C451.481 231.811 450.181 234.911 452.581 236.011C452.881 236.211 453.281 236.311 453.681 236.511C453.281 236.411 452.881 236.411 452.481 236.311C449.481 235.811 448.281 240.411 451.281 240.911C451.781 241.011 452.381 241.111 452.881 241.211C452.781 241.511 452.781 241.711 452.781 242.011C444.081 241.111 435.481 238.911 426.581 234.911C417.381 230.811 411.881 223.011 405.681 216.111C407.881 217.311 410.081 218.611 412.181 220.111C418.781 224.711 425.081 228.311 432.781 230.811C435.681 231.811 436.781 227.111 433.981 226.211C426.681 223.811 420.781 220.311 414.481 215.911C413.281 215.011 411.981 214.211 410.781 213.511C413.281 214.011 415.781 214.411 418.281 214.811C429.481 218.411 440.381 224.011 449.881 229.411ZM636.281 218.811C637.681 219.211 639.081 219.511 640.481 219.911C638.481 220.611 637.981 224.011 640.581 224.411C640.981 224.511 641.381 224.511 641.681 224.611C641.281 224.611 640.881 224.711 640.481 224.711C637.481 225.011 637.481 229.811 640.581 229.411C641.081 229.311 641.681 229.311 642.181 229.211C642.181 229.511 642.181 229.711 642.281 230.011C633.681 231.411 624.781 231.511 615.081 229.911C605.181 228.311 597.781 222.211 589.981 217.211C592.481 217.811 594.881 218.511 597.381 219.411C604.981 222.111 611.981 224.011 620.081 224.411C623.181 224.611 623.081 219.811 619.981 219.711C612.281 219.311 605.681 217.411 598.481 214.811C596.081 213.911 593.581 213.211 591.181 212.611C606.381 212.011 622.481 215.311 636.281 218.811ZM843.181 174.011C843.081 174.011 842.981 174.011 842.881 174.011C836.281 172.711 829.681 171.611 823.281 170.811C820.781 170.011 818.281 169.111 815.681 168.311C818.181 168.211 820.781 168.311 823.381 168.511C831.381 169.111 838.681 169.111 846.581 167.411C849.581 166.811 848.281 162.211 845.281 162.811C837.781 164.411 830.881 164.311 823.281 163.711C820.681 163.511 818.181 163.411 815.581 163.511C830.081 158.911 846.581 157.911 860.681 157.711C862.181 157.711 863.581 157.711 865.081 157.711C863.281 158.911 863.781 162.311 866.381 162.011C866.781 162.011 867.181 161.911 867.481 161.911C867.081 162.011 866.781 162.211 866.381 162.311C863.581 163.411 864.881 168.011 867.681 166.911C868.181 166.711 868.681 166.511 869.181 166.311C869.281 166.611 869.381 166.811 869.481 167.011C861.481 170.511 852.981 172.911 843.181 174.011Z" fill="#A59D9B"/>
</svg>
