<svg width="1254" height="779" viewBox="0 0 1254 779" fill="none" xmlns="http://www.w3.org/2000/svg">
<path d="M1253.6 362.8C1252.8 356.1 1238.4 355.8 1234.2 355.8C1230 355.8 1226 356.2 1222.2 356.8C1225.4 354.7 1228.5 352.6 1231.5 350.1C1239.2 343.9 1248 337.1 1251.1 327.4C1251.6 326 1250.9 324.3 1249.2 324.1C1240.9 323.3 1229.8 329.7 1223 334.1C1218.2 337.2 1213.6 340.5 1209.9 344.8C1209.8 344.9 1209.7 345 1209.6 345.2C1209.7 343.6 1209.8 342.2 1209.8 340.8C1210 331.5 1208 321 1204.4 312.4C1204.1 311.7 1203.4 311 1202.5 310.9C1194.3 310.5 1190.1 324.9 1188.6 330.9C1185.8 341.9 1182.9 355.1 1185 366.7C1184.9 367.5 1184.8 368.3 1184.7 369.1C1165.5 392.7 1148.7 418.2 1130.5 442.6C1131.1 439.1 1131 435.4 1129.9 432.1C1128.6 428.3 1126.5 426.6 1123.9 423.8C1122.8 422.6 1120.4 422.4 1119.8 424.3C1117.1 433.1 1114 447 1121.6 454.3C1121.5 454.4 1121.5 454.5 1121.4 454.6C1109.3 470 1096.4 484.7 1081.7 497.9C1081.5 498.1 1081.4 498.3 1081.2 498.5C1065 512.3 1044.9 518.9 1024.5 523.8C1037.2 516.2 1049.1 507.5 1060 497.8C1069.1 494.2 1078.1 490.4 1087.9 487.6C1090.1 486.9 1089.9 483.2 1087.5 483C1083.7 482.7 1079.9 482.4 1076.1 482.2C1086.5 471.2 1095.9 459.1 1104.4 446.1C1105.1 445.7 1105.4 445.1 1105.4 444.5C1124.2 415 1137.9 380.5 1146.2 341.6C1148.6 330.3 1150.5 318.7 1151.9 306.8C1152 306.6 1152.1 306.5 1152.2 306.3C1160.4 287.3 1178.4 274.4 1191.1 258.3C1203.3 242.7 1204.2 221.5 1212.5 203.8C1213.8 201.1 1210.1 198.8 1208.4 201.4C1197 218.6 1179.1 232.5 1169.1 250.4C1162.6 262 1158.5 274.1 1153.9 286.2C1154 285.2 1154.1 284.1 1154.1 283.1C1156 273.3 1158.5 263.9 1160.3 256.7C1164.1 241.4 1166.8 224.8 1171.2 208.9C1172.2 209.3 1173.3 209.1 1174.1 208C1184.3 192.6 1209.2 188.4 1223.4 178C1234.5 169.9 1241.6 160.5 1247.7 148.3C1248.5 146.6 1247.2 144 1245 144.8C1225.8 151.9 1208.8 155.8 1193.4 170.4C1190.3 173.4 1186.1 176.6 1182.1 180.2C1182.4 179.7 1182.7 179.1 1183 178.6C1186.9 171.7 1191 164.9 1194.9 158C1195.6 157.8 1196.1 157.2 1196.3 156.4V156.3C1203 144.3 1212.7 134.2 1218.7 121.6C1224.1 110.1 1226.6 98.4001 1229.9 86.3001C1230.6 83.6001 1227 82.3 1225.6 84.5C1217.9 96.1 1209.2 106.1 1203 118.9C1197.7 129.9 1195.1 141.5 1192.2 153.2C1192.1 153.4 1192 153.6 1191.8 153.9C1191.6 154.2 1191.4 154.5 1191.3 154.8C1191.2 155 1191.1 155.2 1190.9 155.5C1195.3 132.9 1195.4 110.3 1188.6 87.7C1187.9 85.5 1184.6 85.4 1184 87.7C1179.2 105.4 1175.8 124.3 1173.1 142.4C1171.2 155.1 1177.4 168.3 1175.4 180.5C1175 181 1174.7 181.7 1174.9 182.5C1175 182.8 1175 183.1 1175.1 183.5C1175.2 183.8 1175.3 184 1175.4 184.2C1174.6 185.8 1173.9 187.5 1173.2 189.1C1173 189.5 1172.9 190 1172.7 190.4C1170.3 193.9 1168.7 197.7 1168.5 201.8C1167 206.2 1165.7 210.8 1164.5 215.3C1165.1 215.4 1165.6 216.1 1165.3 216.8C1162.4 222.9 1162.5 230 1159.7 236.1C1158 244.2 1156.5 252.2 1154.9 260.1C1155.6 206.2 1147.3 149.5 1130.3 96.4001C1130.1 95.9001 1129.8 95.4 1129.4 95.1C1129.1 93.7 1128.7 92.3 1128.1 91.1C1127.4 89.8 1126.7 88.3001 1125.8 86.8001C1125.1 85.3001 1124.5 83.3001 1124.9 82.3001V82.2C1133.9 75.1 1137.8 58 1135.2 48.2C1133.9 43.6 1118.2 4.90007 1110.2 15.4001C1108.9 11.7001 1106.8 8.30002 1104 5.60002C1102.6 4.30002 1099.1 0.10002 1096.6 1.10002C1092.6 2.70002 1094.4 7.00002 1094.7 10.6C1093.4 9.60002 1092.2 8.20009 1090.6 8.30009C1088.5 8.30009 1086.9 9.10004 1085.9 11C1085.6 11.5 1085.5 12 1085.4 12.5C1084.9 13.2 1084.8 14.0001 1084.8 14.9001C1081.9 13.9001 1079 14.3001 1077.1 17.9001C1074.7 22.6001 1080 27.6001 1083.6 31.8001C1083.6 31.8001 1083.6 31.8001 1083.5 31.8001C1082.5 31.7001 1081.7 32.1001 1081.2 32.8001C1079.7 32.2001 1077.7 32.8001 1077.9 34.9001C1078.9 46.3001 1081.7 56.4001 1089.1 65.4001C1094.5 72.0001 1103.7 83 1112.6 85.1C1112.7 85.1 1112.7 85.1 1112.8 85.1C1112.9 85.4 1113 85.7 1113.3 86C1114 86.9 1114.9 87.1 1115.9 87.5C1116.5 87.8 1117.8 89.1 1118.6 89.6C1119.8 90.2 1122.8 91.0001 1123.2 92.4001C1123.4 93.0001 1123.7 93.4 1124.1 93.7C1124.4 94.7 1124.7 95.5 1124.8 96.2C1124.5 96.8 1124.5 97.6001 1124.7 98.3001C1155 192.9 1160.3 304.9 1124.4 394.8C1127 383.8 1128 372.5 1126.6 360.8C1126.6 360.6 1126.5 360.4 1126.4 360.2C1124.6 342.6 1121 325.4 1116.7 308.4C1122.6 302.6 1125.7 289.1 1127.2 281.4C1128.8 273.6 1130.5 262.8 1127.8 255.1C1127.2 253.3 1124.5 252.6 1123.5 254.5C1118.5 264.2 1113.1 274.6 1110.3 285.4C1102.7 259.6 1094 234.1 1087.4 208C1087.5 207.9 1087.6 207.7 1087.6 207.6C1087.7 207.4 1087.8 207.2 1087.9 207C1088.3 206.7 1088.6 206.3 1088.7 205.9C1089.8 204.7 1091.3 203.5 1092.2 202.4C1092.3 202.2 1092.5 202.1 1092.6 201.9C1096 199.1 1099.7 196.5 1102.5 193.2C1106.9 188 1110.2 182.3 1113.1 176.1C1115.3 171.3 1125.2 150.8 1118.3 146.8C1112.5 143.4 1103.6 154.7 1101 158.1C1098.5 161.4 1096.3 164.8 1094.5 168.3C1094.8 164.5 1094.9 160.7 1094.8 156.8C1094.5 146.9 1094.4 135.8 1088.6 127.4C1087.8 126.2 1086 125.7 1084.9 126.9C1079.2 133.1 1077.6 145.7 1077 153.9C1076.6 159.6 1076.4 165.3 1077.6 170.9C1077.6 171.1 1077.7 171.2 1077.7 171.4C1076.5 170.3 1075.4 169.4 1074.3 168.6C1067 162.8 1057.4 158.1 1048.4 155.8C1047.6 155.6 1046.6 155.8 1046.1 156.4C1040.9 162.7 1049.8 174.7 1053.7 179.6C1060.8 188.4 1069.5 198.8 1080 204.1C1080.6 204.7 1081.1 205.2 1081.7 205.8C1088.9 235.4 1099.1 264.2 1107.5 293.4C1105.1 290.9 1102.1 288.6 1098.7 287.5C1094.9 286.3 1092.3 286.8 1088.4 287.3C1086.8 287.5 1085.2 289.3 1086.4 290.9C1091.8 298.3 1101 309.2 1111.4 307.6C1111.4 307.7 1111.5 307.8 1111.6 307.9C1116.6 326.8 1120.5 346 1122.1 365.8C1122.1 366.1 1122.2 366.3 1122.3 366.5C1123.7 391.1 1114.2 414 1104.1 436C1094 452.7 1082.2 468.2 1068.3 482.2C1036.9 480.8 1006.5 483.2 978.6 498.2C982.2 494 985.7 489.8 988.9 485.4C992.1 482.9 994.3 479.4 995.8 475.4C996 475 996.3 474.6 996.5 474.2C997.5 472.7 998.4 471.1 999.3 469.6C999.6 469.6 999.8 469.5 1000.1 469.4C1000.4 469.3 1000.7 469.1 1001 469C1001.8 468.7 1002.2 468.1 1002.4 467.4C1011.3 458.8 1025.7 456.3 1035 447.5C1048.4 435 1062 421.4 1073.7 407.3C1075.2 405.5 1073.3 402.8 1071.1 403.5C1048.6 410.9 1030.1 423.8 1014.1 440.3C1014.2 440.1 1014.3 439.9 1014.4 439.6C1014.6 439.3 1014.8 439 1014.9 438.7C1015 438.5 1015.1 438.2 1015.2 438C1023.1 428.9 1031.1 420.2 1037.2 409.6C1044.2 397.3 1047.4 384.4 1052.6 371.4C1053.6 369 1050.4 366.8 1048.6 368.9C1040.5 378.5 1032.4 387.3 1026 398.3C1019.1 410.3 1016.3 424.1 1010.3 436.5L1010.2 436.6C1009.7 437.2 1009.6 438 1009.7 438.6C1006.2 445.8 1003 453.1 999.6 460.2C999.3 460.7 999.1 461.3 998.8 461.8C999.5 456.4 999.8 451.2 1000.4 446.9C1003.6 425.9 997.1 409.7 992 390C991.4 387.8 988.5 388.2 987.6 389.8C981.1 401.7 977.5 413 977.1 426.7C976.7 444.3 987.4 467.1 980.6 484.3C980.1 485.5 980.6 486.6 981.5 487.2C971 499.9 958.9 511.6 948.5 523.4C942.8 529.9 935.2 538.8 926.8 547.1C934.4 535.8 942.5 525.1 948.6 512.6C957.6 494.2 958.8 471.5 966.4 452.4C967.5 449.5 963.6 447.8 962.1 450.4C952.3 467.3 935.4 480.1 929.6 499C923.6 518.6 923.2 540.7 912.4 558.3C912.1 558.8 912 559.3 912.1 559.8C910.8 560.7 909.5 561.6 908.1 562.4C880.9 569.4 853.3 574.9 826.2 580.3C811.6 583.2 797.2 586.1 783 589.1C789 584.4 796.8 582.5 803.6 579.1C810.7 575.5 816.9 568.9 821.6 562.7C834.3 545.9 838.3 529.3 840.4 508.5C840.7 505.6 836.7 505.6 835.7 507.9C828.3 526.3 809.9 537.7 797.9 552.9C789.5 563.5 780.8 574.4 776.6 587.3C776.2 587.7 775.9 588.3 775.9 589C775.9 589.2 775.9 589.5 775.9 589.7C775.8 590 775.7 590.4 775.6 590.7C732.3 600.3 691.4 611.8 654.2 631.5C644.6 636.6 635.6 642 627.1 647.9C618.6 642 609.6 636.6 600 631.5C562.8 611.8 521.9 600.3 478.6 590.7C478.5 590.4 478.4 590 478.3 589.7C478.3 589.5 478.3 589.2 478.3 589C478.3 588.2 478 587.7 477.6 587.3C473.4 574.4 464.7 563.5 456.3 552.9C444.3 537.7 425.9 526.3 418.5 507.9C417.6 505.6 413.5 505.6 413.8 508.5C415.9 529.3 419.9 545.9 432.6 562.7C437.3 568.9 443.5 575.5 450.6 579.1C457.4 582.5 465.2 584.4 471.2 589.1C457 586.1 442.6 583.2 428 580.3C400.9 574.9 373.3 569.4 346.1 562.4C344.8 561.6 343.5 560.7 342.1 559.8C342.2 559.4 342.1 558.9 341.8 558.3C330.9 540.7 330.6 518.5 324.6 499C318.8 480 301.8 467.2 292.1 450.4C290.6 447.8 286.6 449.5 287.8 452.4C295.4 471.6 296.6 494.2 305.6 512.6C311.7 525.1 319.8 535.8 327.4 547.1C319 538.9 311.4 529.9 305.7 523.4C295.3 511.5 283.2 499.8 272.7 487.2C273.5 486.6 274.1 485.5 273.6 484.3C266.8 467.1 277.6 444.3 277.1 426.7C276.8 413 273.1 401.7 266.6 389.8C265.7 388.2 262.8 387.8 262.2 390C257.1 409.8 250.6 426 253.8 446.9C254.4 451.2 254.7 456.4 255.4 461.8C255.1 461.3 254.9 460.7 254.6 460.2C251.1 453.1 247.9 445.8 244.5 438.6C244.7 437.9 244.6 437.2 244 436.6L243.9 436.5C237.9 424.1 235.1 410.3 228.2 398.3C221.9 387.3 213.7 378.5 205.6 368.9C203.8 366.8 200.7 369 201.6 371.4C206.7 384.4 210 397.2 217 409.6C223 420.2 231 428.9 239 438C239.1 438.2 239.2 438.5 239.3 438.7C239.4 439 239.5 439.3 239.8 439.6C239.9 439.8 240 440 240.1 440.3C224.1 423.8 205.6 410.8 183.1 403.5C180.9 402.8 178.9 405.4 180.5 407.3C192.3 421.3 205.8 434.9 219.2 447.5C228.5 456.3 242.9 458.8 251.8 467.4C252 468.1 252.4 468.7 253.2 469C253.5 469.1 253.8 469.3 254.1 469.4C254.4 469.5 254.6 469.6 254.9 469.6C255.8 471.2 256.7 472.7 257.7 474.2C257.9 474.6 258.2 475 258.4 475.4C259.9 479.4 262.1 482.9 265.3 485.4C268.6 489.8 272 494 275.6 498.2C247.7 483.1 217.3 480.8 185.9 482.2C172.1 468.2 160.2 452.7 150.1 436C140 414 130.5 391.1 131.9 366.5C132 366.3 132 366.1 132.1 365.8C133.7 346.1 137.6 326.9 142.6 307.9C142.7 307.8 142.7 307.7 142.8 307.6C153.2 309.2 162.4 298.3 167.8 290.9C169 289.3 167.3 287.5 165.8 287.3C162 286.9 159.4 286.3 155.5 287.5C152.2 288.6 149.2 290.8 146.7 293.4C155.1 264.2 165.3 235.4 172.5 205.8C173.1 205.2 173.6 204.7 174.2 204.1C184.8 198.8 193.5 188.4 200.5 179.6C204.4 174.7 213.3 162.7 208.1 156.4C207.6 155.8 206.6 155.6 205.8 155.8C196.8 158.1 187.2 162.9 179.9 168.6C178.8 169.4 177.7 170.4 176.5 171.4C176.5 171.2 176.6 171.1 176.6 170.9C177.8 165.3 177.6 159.6 177.2 153.9C176.6 145.8 175 133.1 169.3 126.9C168.2 125.7 166.4 126.2 165.6 127.4C159.8 135.8 159.7 146.9 159.4 156.8C159.3 160.7 159.4 164.5 159.7 168.3C157.9 164.8 155.8 161.4 153.2 158.1C150.6 154.7 141.7 143.4 135.9 146.8C129 150.8 138.9 171.4 141.1 176.1C143.9 182.3 147.3 188 151.7 193.2C154.5 196.5 158.2 199.1 161.6 201.9C161.7 202.1 161.9 202.2 162 202.4C162.9 203.5 164.4 204.7 165.5 205.9C165.7 206.3 165.9 206.7 166.3 207C166.4 207.2 166.5 207.4 166.6 207.6C166.7 207.8 166.7 207.9 166.8 208C160.2 234.1 151.5 259.6 143.9 285.4C141.1 274.6 135.7 264.3 130.7 254.5C129.7 252.5 127 253.3 126.4 255.1C123.7 262.8 125.4 273.5 127 281.4C128.6 289.1 131.7 302.6 137.5 308.4C133.1 325.4 129.6 342.6 127.8 360.2C127.7 360.4 127.7 360.6 127.6 360.8C126.1 372.5 127.2 383.8 129.8 394.8C93.9 304.9 99.2 192.9 129.5 98.3001C129.7 97.6001 129.7 96.9 129.4 96.2C129.5 95.5 129.8 94.7 130.1 93.7C130.5 93.4 130.8 93.0001 131 92.4001C131.4 91.0001 134.4 90.2 135.6 89.6C136.4 89.2 137.6 87.8 138.3 87.5C139.3 87.1 140.2 86.8 140.9 86C141.1 85.7 141.3 85.4 141.4 85.1C141.5 85.1 141.5 85.1 141.6 85.1C150.5 83.1 159.7 72.0001 165.1 65.4001C172.5 56.4001 175.2 46.3001 176.3 34.9001C176.5 32.9001 174.5 32.2001 173 32.8001C172.5 32.1001 171.7 31.7001 170.7 31.8001C170.7 31.8001 170.7 31.8001 170.6 31.8001C174.2 27.6001 179.5 22.6001 177.1 17.9001C175.2 14.3001 172.4 13.9001 169.4 14.9001C169.5 14.0001 169.3 13.2 168.8 12.5C168.7 12 168.6 11.5 168.3 11C167.3 9.10004 165.7 8.40009 163.6 8.30009C161.9 8.30009 160.7 9.70002 159.5 10.6C159.8 7.00002 161.6 2.70002 157.6 1.10002C155.1 0.10002 151.6 4.30002 150.2 5.60002C147.4 8.30002 145.3 11.7001 144 15.4001C136 4.90007 120.3 43.5 119 48.2C116.3 58 120.3 75.1 129.3 82.2V82.3001C129.7 83.3001 129 85.2001 128.4 86.8001C127.6 88.2001 126.9 89.7 126.1 91.1C125.4 92.3 125.1 93.7 124.8 95.1C124.4 95.4 124.1 95.9001 123.9 96.4001C106.9 149.5 98.6 206.2 99.3 260.1C97.7 252.2 96.2 244.2 94.5 236.1C91.7 230 91.8 222.9 88.9 216.8C88.6 216.1 89.1 215.4 89.7 215.3C88.5 210.7 87.2 206.2 85.7 201.8C85.5 197.7 83.9 193.9 81.5 190.4C81.3 190 81.2 189.5 81 189.1C80.3 187.4 79.5 185.8 78.8 184.2C78.9 184 79 183.7 79.1 183.5C79.2 183.2 79.2 182.9 79.3 182.5C79.5 181.7 79.2 181 78.8 180.5C76.8 168.3 83 155.1 81.1 142.4C78.4 124.3 75 105.3 70.2 87.7C69.6 85.4 66.3 85.5 65.6 87.7C58.8 110.4 58.9 132.9 63.3 155.5C63.2 155.3 63.1 155.1 62.9 154.8C62.8 154.5 62.6 154.2 62.4 153.9C62.3 153.7 62.2 153.5 62 153.2C59.1 141.5 56.5 129.9 51.2 118.9C45.1 106.1 36.4 96.1 28.6 84.5C27.1 82.3 23.5 83.7001 24.3 86.3001C27.6 98.4001 30.1 110.1 35.5 121.6C41.4 134.1 51.1 144.3 57.9 156.3V156.4C58.1 157.2 58.7 157.7 59.3 158C63.2 164.9 67.4 171.7 71.2 178.6C71.5 179.1 71.8 179.7 72.1 180.2C68.1 176.6 63.9 173.3 60.8 170.4C45.4 155.8 28.4 151.9 9.19995 144.8C7.09995 144 5.7 146.6 6.5 148.3C12.6 160.5 19.7 169.9 30.8 178C45 188.4 69.9 192.6 80.1 208C80.8 209.1 82 209.3 83 208.9C87.4 224.8 90.1 241.4 93.9 256.7C95.7 263.9 98.1 273.3 100.1 283.1C100.2 284.1 100.3 285.2 100.3 286.2C95.7 274.1 91.6 262 85.1 250.4C75.1 232.5 57.2 218.6 45.8 201.4C44.1 198.8 40.4 201.1 41.7 203.8C50 221.4 50.8 242.7 63.1 258.3C75.7 274.4 93.7 287.4 102 306.3C102.1 306.5 102.2 306.7 102.3 306.8C103.7 318.7 105.6 330.3 108 341.6C116.2 380.5 130 414.9 148.8 444.5C148.8 445.1 149.1 445.7 149.8 446.1C158.2 459.1 167.7 471.2 178.1 482.2C174.3 482.4 170.5 482.7 166.7 483C164.3 483.2 164.1 486.9 166.3 487.6C176.1 490.5 185.1 494.2 194.2 497.8C205.2 507.5 217 516.1 229.7 523.8C209.3 518.9 189.1 512.3 173 498.5C172.9 498.3 172.7 498.1 172.5 497.9C157.8 484.7 144.8 470 132.8 454.6C132.7 454.5 132.7 454.4 132.6 454.3C140.1 447 137 433.1 134.4 424.3C133.8 422.4 131.4 422.6 130.3 423.8C127.6 426.6 125.6 428.3 124.3 432.1C123.1 435.4 123.1 439.2 123.7 442.6C105.5 418.2 88.7 392.7 69.5 369.1C69.4 368.3 69.3 367.5 69.2 366.7C71.3 355.1 68.4 341.9 65.6 330.9C64.1 324.9 59.9 310.5 51.7 310.9C50.9 310.9 50.1 311.6 49.8 312.4C46.2 321 44.2 331.5 44.4 340.8C44.4 342.1 44.5 343.6 44.6 345.2C44.5 345.1 44.4 345 44.3 344.8C40.6 340.5 35.8999 337.2 31.1999 334.1C24.3999 329.6 13.3 323.3 5 324.1C3.4 324.3 2.69997 326 3.09997 327.4C6.29997 337.1 14.9999 343.9 22.6999 350.1C25.6999 352.5 28.8 354.7 32 356.8C28.1 356.1 24.1 355.7 20 355.8C15.7 355.8 1.39997 356.1 0.599974 362.8C-0.300026 370.7 22 375.2 27.1 376.4C33.8 377.9 40.3 378.6 47.1 378.3C51.4 378.1 55.7 376.7 60 375.7C60.2 375.7 60.4 375.7 60.6 375.7C62 375.7 63.9 375.2 65.5 375.1C66 375.2 66.4 375.3 66.9 375.1C67.1 375.1 67.4 375.2 67.6 375.2C67.8 375.2 67.9 375.3 68.1 375.3C84.9 396.3 100 418.7 115.9 440.3C105.6 436 94.1 434.1 83.3 432.2C81.1 431.8 80.1 434.4 81.1 436C85.6 442.8 95.2 447.9 102.4 451.4C109.5 454.8 122.1 460.5 130.2 459.3C141.1 473.1 152.6 486.3 165.6 498.4C165.7 498.6 165.8 498.7 166 498.9C187.2 519.7 216.4 526.2 244.3 532.3C245.6 533 247 533.7 248.3 534.3C294 556.8 343.4 569.2 392.4 579.4C381.7 580 371 581.1 360.4 582.6C355.3 576.1 342.3 571.4 334.9 569C327.3 566.5 316.8 563.6 308.9 565.3C307 565.7 306 568.3 307.8 569.5C316.9 575.6 326.5 582.2 336.9 586.2C310.4 590.8 284 596.4 257.4 599.9C257.3 599.8 257.2 599.7 257 599.6C256.8 599.5 256.6 599.4 256.4 599.2C256.2 598.8 255.8 598.4 255.4 598.2C254.3 597 253.3 595.3 252.3 594.3C252.1 594.1 252 594 251.8 593.8C249.4 590.1 247.3 586.1 244.3 583C239.6 578 234.4 574 228.5 570.5C224 567.8 204.8 555.6 200 561.9C195.9 567.3 206.1 577.4 209.2 580.4C212.2 583.3 215.3 585.8 218.6 588C214.9 587.3 211.1 586.7 207.3 586.3C197.4 585.4 186.4 584.2 177.4 589C176.1 589.7 175.4 591.4 176.5 592.6C182 599 194.4 602 202.4 603.5C208 604.6 213.6 605.4 219.3 604.9C219.5 604.9 219.6 604.9 219.8 604.8C218.6 605.8 217.5 606.8 216.6 607.8C210 614.4 204.2 623.3 200.8 632C200.5 632.7 200.6 633.8 201.1 634.4C206.7 640.3 219.7 632.9 225 629.6C234.6 623.6 245.9 616.2 252.4 606.3C253 605.8 253.7 605.3 254.3 604.8C284.5 601.1 314.3 594.3 344.3 589.4C341.5 591.5 338.9 594.2 337.5 597.4C335.8 601.1 336.1 603.7 336.1 607.6C336.1 609.2 337.7 611 339.4 610.1C347.4 605.6 359.3 597.7 358.9 587.3C359 587.3 359.1 587.2 359.3 587.2C377.3 584.7 395.3 583.1 413.6 583.4C418 584.3 422.4 585.2 426.8 586.1C457.2 592.2 487.2 598.2 515.9 606C508.6 606 501.4 606.5 493.8 609.1C474.9 615.5 454.4 630.6 433.8 627.9C431.4 627.6 429.4 631.1 432.1 632.3C440 635.8 448.2 639.8 456.6 642.6C457.9 643.4 459.3 644 460.8 643.9C460.8 643.9 460.8 643.9 460.9 643.9C469 646.1 477.4 646.9 485.9 644.5C505.8 639.1 515.1 620.7 531.8 611C532 611 532.1 611 532.3 611C532.6 611 532.8 611 533 610.9C564.9 620.7 594.9 633.3 621.8 651.6C607.8 661.8 595.3 673.1 583.9 685.9C562.1 710.4 545 739.5 531.7 774.9C531.1 776.5 531.9 778.2 533.5 778.8C533.8 778.9 534.2 779 534.6 779C535.8 779 537 778.3 537.4 777.1C558.9 720 589.9 681.9 627.1 655.3C664.3 681.9 695.3 720 716.8 777.1C717.3 778.3 718.4 779 719.6 779C720 779 720.3 778.9 720.7 778.8C722.3 778.2 723 776.5 722.5 774.9C709.2 739.6 692.2 710.5 670.3 685.9C658.9 673.1 646.4 661.7 632.4 651.6C659.4 633.3 689.4 620.7 721.2 610.9C721.4 611 721.6 611 721.9 611C722.1 611 722.2 611 722.4 611C739.1 620.7 748.4 639 768.3 644.5C776.9 646.8 785.2 646.1 793.3 643.9C793.3 643.9 793.3 643.9 793.4 643.9C794.9 644 796.2 643.4 797.6 642.6C806 639.8 814.1 635.8 822.1 632.3C824.8 631.1 822.8 627.6 820.4 627.9C799.8 630.5 779.3 615.5 760.4 609.1C752.8 606.5 745.6 606 738.3 606C767 598.2 797 592.2 827.4 586.1C831.8 585.2 836.2 584.3 840.6 583.4C858.9 583.1 877 584.6 894.9 587.2C895 587.2 895.1 587.3 895.3 587.3C895 597.8 906.9 605.7 914.8 610.1C916.5 611.1 918.1 609.2 918.1 607.6C918.1 603.7 918.3 601.1 916.7 597.4C915.2 594.2 912.7 591.5 909.9 589.4C939.9 594.3 969.7 601.1 999.9 604.8C1000.5 605.3 1001.2 605.8 1001.8 606.3C1008.3 616.2 1019.6 623.6 1029.2 629.6C1034.5 632.9 1047.5 640.3 1053.1 634.4C1053.7 633.8 1053.7 632.8 1053.4 632C1050.1 623.3 1044.2 614.3 1037.6 607.8C1036.7 606.9 1035.6 605.8 1034.4 604.8C1034.6 604.8 1034.7 604.8 1034.9 604.9C1040.6 605.4 1046.2 604.6 1051.8 603.5C1059.8 602 1072.2 598.9 1077.7 592.6C1078.8 591.4 1078.1 589.6 1076.8 589C1067.8 584.2 1056.8 585.4 1046.9 586.3C1043.1 586.6 1039.3 587.2 1035.6 588C1038.9 585.8 1042 583.3 1045 580.4C1048.1 577.4 1058.2 567.3 1054.2 561.9C1049.4 555.5 1030.2 567.8 1025.7 570.5C1019.9 574 1014.6 578.1 1009.9 583C1006.9 586.2 1004.8 590.1 1002.4 593.8C1002.2 594 1002.1 594.1 1001.9 594.3C1000.9 595.3 999.9 596.9 998.8 598.2C998.4 598.4 998 598.7 997.8 599.2C997.6 599.3 997.4 599.5 997.2 599.6C997.1 599.7 996.9 599.8 996.8 599.9C970.1 596.4 943.7 590.7 917.3 586.2C927.7 582.2 937.3 575.6 946.4 569.5C948.2 568.3 947.2 565.7 945.3 565.3C937.3 563.6 926.9 566.5 919.3 569C911.8 571.4 898.8 576.1 893.8 582.6C883.2 581.1 872.5 580 861.8 579.4C910.8 569.1 960.3 556.7 1005.9 534.3C1007.2 533.6 1008.6 532.9 1009.9 532.3C1037.8 526.2 1067 519.7 1088.2 498.9C1088.4 498.7 1088.5 498.6 1088.6 498.4C1101.5 486.3 1113.1 473.1 1124 459.3C1132.2 460.5 1144.8 454.8 1151.8 451.4C1159 447.9 1168.6 442.8 1173.1 436C1174.2 434.4 1173.1 431.8 1170.9 432.2C1160.1 434.1 1148.6 436 1138.3 440.3C1154.2 418.6 1169.3 396.3 1186.1 375.3C1186.3 375.3 1186.4 375.3 1186.6 375.2C1186.8 375.1 1187 375.1 1187.3 375.1C1187.8 375.3 1188.2 375.3 1188.7 375.1C1190.4 375.2 1192.2 375.7 1193.6 375.7C1193.8 375.7 1194 375.7 1194.2 375.7C1198.5 376.7 1202.8 378.1 1207.1 378.3C1213.9 378.6 1220.5 377.9 1227.1 376.4C1232.2 375.3 1254.5 370.7 1253.6 362.8ZM1183 240.8C1184.6 238.9 1186.3 237.1 1187.9 235.2C1187.6 237.3 1190.9 238.9 1192.4 236.6C1192.9 235.9 1193.4 235.1 1193.8 234.4C1194.8 235.2 1196.5 235.4 1197.4 233.9C1197.4 233.9 1197.5 233.8 1197.5 233.7C1194.9 241.6 1191.9 249.2 1186.9 256C1182.4 262.2 1177 267.8 1171.7 273.3C1173.8 271.1 1175.8 268.9 1177.6 266.6C1182.8 260.2 1185.6 252.4 1188.9 244.9C1190.1 242.1 1186 239.7 1184.8 242.5C1180.1 253.2 1175.3 262 1167.6 270.8C1166 272.6 1164.3 274.5 1162.7 276.4C1167.7 264 1173.2 251.9 1183 240.8ZM1209.7 116.7C1209.9 116.3 1210.2 115.9 1210.4 115.5C1211.4 116.4 1213.1 116.6 1214 115C1214 114.9 1214.1 114.9 1214.1 114.8C1214.5 115.6 1215.3 116.1 1216.2 116.2C1215 118.9 1213.6 121.5 1211.9 124.1C1208.8 128.9 1205.4 133.7 1202.1 138.5C1201.8 138.3 1201.4 138.1 1201.1 138.1C1203.2 130.8 1205.8 123.7 1209.7 116.7ZM1178.7 137.4C1179.8 131.1 1180.9 124.7 1182.1 118.3C1183.3 119.2 1185.4 119.1 1185.8 117.1C1185.9 116.8 1185.9 116.5 1186 116.2C1187.1 116.1 1188.2 115.3 1188.4 114C1188.5 113.4 1188.6 112.7 1188.6 112C1189.9 124.8 1189.2 137.5 1187.1 150.3C1187 143.1 1186.4 135.9 1185.9 129.1C1185.7 126.1 1180.9 126.1 1181.2 129.1C1182.1 142 1183.9 156.5 1180.6 169.6C1179.7 159 1176.8 148.2 1178.7 137.4ZM1203.7 168.2C1212.5 162 1221.4 158.4 1230.7 155C1228.8 156.4 1226.8 157.7 1224.5 158.6C1221.7 159.7 1222.9 164.3 1225.7 163.2C1226.1 163 1226.5 162.8 1226.9 162.7C1226.8 164.3 1228.2 166 1229.8 165.3C1222.4 172.7 1213.6 178.2 1202.8 183.7C1196 187.2 1186.9 191.2 1179.5 196.4C1184.5 191.9 1191.3 188.4 1196.1 185.1C1203.3 180.1 1210.8 175.3 1217.7 169.8C1220.1 167.9 1216.7 164.5 1214.4 166.4C1205.4 173.6 1195.4 180 1185.7 186.3C1183 188.1 1179.6 190.3 1176.7 192.8C1183.1 182.7 1196.5 173.3 1203.7 168.2ZM1099.3 7.80009C1100.2 8.60009 1101.1 9.50007 1101.9 10.4001C1104 13.1001 1105.5 15.7 1106.3 19C1106.5 20 1107.2 20.5 1108 20.7C1107.7 22.3 1107.6 24 1107.6 25.7C1106.8 24.4 1106 23.1001 1105.3 21.9001C1103.6 19.1001 1100.7 15.6001 1100.6 12.3001C1100.6 11.3001 1100 10.6001 1099.3 10.3001C1099.2 9.30009 1099 8.40007 1098.9 7.40007C1099 7.50007 1099.1 7.70009 1099.3 7.80009ZM1097.2 18.5C1097.4 18.6 1097.7 18.7001 1097.9 18.8001C1098.5 19.8001 1099.1 20.8001 1099.7 21.8001C1102.2 26.1001 1104.8 30.3 1107.4 34.5C1107.8 35.1 1108.3 35.4 1108.8 35.6C1109.3 37.8 1109.7 40.0001 1110.1 41.8001C1110.2 42.1001 1110.2 42.4 1110.3 42.7C1108.8 41 1107.2 39.4 1105.4 38C1105.5 37.9 1105.5 37.8 1105.6 37.7C1105.7 37.6 1105.7 37.4001 1105.8 37.3001C1106.8 35.6001 1105.4 34.0001 1103.9 33.8001C1102.9 32.7001 1101.9 30.8001 1101.1 29.9001C1099.6 28.2001 1098.1 26.6001 1096.6 24.9001C1096.1 24.3001 1095.4 23.6001 1094.7 22.8001C1094.7 22.6001 1094.6 22.4 1094.6 22.2C1093.7 19.9 1091.8 17.7001 1090.8 15.4001C1093.2 15.8001 1095.7 17.6 1097.2 18.5ZM1082.4 22.5C1084.1 20.5 1085.8 20 1087.2 21C1089.3 24.1 1092.3 27.1 1094.6 29.6C1095.8 31 1097 32.3 1098.2 33.7C1096 32.6 1093.7 31.6001 1091.3 31.4001C1090.6 31.4001 1089.9 31.4 1089.2 31.5C1087.9 29.7 1086.5 28.2 1085 26.2C1084.2 25.1 1083 23.9 1082.4 22.5ZM1111.6 70.6C1110.3 67.8 1106.2 70.2 1107.5 73C1108.6 75.4 1110.2 77.7 1111.9 79.7C1109 78.2 1106.4 75.8 1104.8 74.5C1092.3 64.2 1084.8 52.7 1083 36.7C1084.4 36.8 1085.3 36.5001 1086.7 36.4001C1087.7 37.9001 1090 37.7 1090.8 36.5C1093.5 36.9 1096.1 37.9001 1098.5 39.3001C1103.7 42.3001 1107.9 46.2 1110.6 51.6C1111.2 52.7 1112.2 53 1113.1 52.7C1114.3 57 1115.5 61.3001 1115.8 65.9001C1116.1 70.2001 1116.5 74.5 1117.3 78.7C1115 76.2 1113 73.6 1111.6 70.6ZM1122.5 71.4001C1122.3 72.8001 1122.1 74.1001 1121.6 75.4001C1120.9 69.4001 1121 63.3 1119.4 57.6C1117.6 50.7 1115.4 44.3 1114.3 37.2C1113.7 33.4 1112 28.3001 1112.5 24.4001C1112.5 24.2001 1113.4 18.6 1114.1 19.2C1120.3 25.4 1124.3 31.9 1127.5 40.1C1130.2 47.2 1132.8 55.9 1130.3 63.6C1129.7 65.5 1128.8 67.5001 1127.8 69.4001C1128.2 68.3001 1128.7 67.4 1128.9 66.2C1129.4 63.2 1124.8 62 1124.3 65C1123.9 67.3 1122.8 69.2001 1122.5 71.4001ZM1098.4 170.7C1100.7 166.4 1103.2 162.1 1106.6 158.6C1107 158.2 1115.6 149.2 1114.9 154C1113.5 164.7 1109 176.3 1102.7 185.1C1101 187.5 1098.9 189.6 1096.8 191.6C1096.9 190.8 1096.8 190.1 1096.7 189.3C1096.5 187.9 1095.7 187.1 1094.3 186.9C1093.6 186.8 1093 186.9 1092.4 187.2C1093.8 181.6 1095.6 176.2 1098.4 170.7ZM1091.5 194C1091.5 194.1 1091.4 194.3 1091.4 194.4C1091.4 194.3 1091.4 194.3 1091.3 194.2C1091.4 194.2 1091.4 194.1 1091.5 194ZM1076.4 188.7C1074.1 189.1 1073.4 191.5 1073.5 193.8C1069.6 190.5 1066.1 186.8 1063.1 183.3C1057.4 176.7 1051.8 169.9 1049.6 161.3C1048.9 160.9 1048.9 160.9 1049.6 161.2C1051.3 162 1053.1 162.6 1054.9 163.2C1059.1 164.7 1063.4 166.4 1067.1 169C1070.5 171.4 1077 176.3 1081.1 181.7C1082.2 184.6 1083.1 187.6 1083.5 190.6C1083.5 190.7 1083.5 190.8 1083.6 190.9C1081.4 189.5 1079.1 188.3 1076.4 188.7ZM1081.6 154.2C1082 147 1083.1 138.5 1086.3 133C1091.6 143.5 1090.8 158.3 1089.7 169.3C1089.6 170.6 1089.3 172.1 1088.9 173.7C1088.9 173.6 1088.9 173.6 1088.8 173.5C1089.7 168.3 1090.7 163.3 1088.3 158.3C1087.2 155.9 1084.6 152.8 1081.6 154.2ZM1092.8 291.3C1094.6 291.1 1096.5 291.3 1098.4 292.3C1101.1 293.7 1103.3 295.5 1105.2 297.7C1106.1 298.8 1107.4 298.6 1108.2 297.9C1108.1 299.5 1108.2 301.1 1108.3 302.7C1102.3 302.2 1096.7 296.3 1092.8 291.3ZM1113.2 296.1C1114.1 284.6 1119.1 273.6 1124.3 263.3C1124.7 270.1 1123.5 278.4 1121.6 283.3C1121 284.9 1116.9 298.2 1115 302.8C1114.4 300.6 1113.8 298.3 1113.2 296.1ZM1028 405.2C1029.1 402.4 1030.5 399.7 1032 397.2C1032.5 397.8 1033.4 398.2 1034.3 398.1C1034.3 398.2 1034.2 398.2 1034.2 398.3C1033.5 399.9 1034.6 401.2 1035.9 401.5C1035.7 401.9 1035.5 402.3 1035.3 402.8C1031.7 409.9 1027.4 416.1 1022.7 422.1C1022.5 421.8 1022.1 421.6 1021.8 421.5C1023.8 416 1025.8 410.5 1028 405.2ZM1041.5 433.4C1044.1 431.8 1041.4 427.9 1038.8 429.5C1032.9 433.1 1026.6 436.6 1020.7 440.6C1029.9 431.6 1040 423.7 1051.2 417.5C1050.7 417.9 1050.2 418.4 1049.7 418.8C1048.7 419.7 1048.7 421.1 1049.2 422.1C1049 422.3 1048.8 422.5 1048.6 422.7C1047.2 424.1 1048.3 425.9 1049.7 426.4C1045.1 431 1040.5 435.6 1036 440.1C1028.2 447.8 1017.7 451.6 1008.6 456.9C1017.4 446.8 1030.4 440 1041.5 433.4ZM984 414C984.3 415.7 986.5 415.9 987.8 414.9C987.9 415.3 987.9 415.8 988 416.2C988.7 419.2 993.1 417.5 992.5 414.6C992 412.3 991.9 409.9 991.9 407.5C994.5 417 996.6 426.4 996.5 437.2C996.4 446.1 996.3 462.4 991.7 473.4C992.1 469.5 992 465.5 991.9 462.3C991.5 450.7 991.1 438.9 991.9 427.3C992.1 424.3 987.4 423.4 987.2 426.5C986.6 435.3 987 444.2 987 453C987 458.8 988 466.4 987.2 473.1C987.2 464.1 985.4 454.3 984.3 446.8C982.6 434.7 982.1 424.3 984 414ZM933.9 501.2C936.7 493.3 941.2 486.4 946.2 479.8C946.2 479.9 946.1 479.9 946.1 480C945.4 481.6 946.5 482.9 947.8 483.3C947.5 484.1 947.1 484.9 946.8 485.8C945.8 488.2 948.9 490.1 950.5 488.6C949.9 491 949.3 493.4 948.7 495.8C945.1 510.1 938.4 521.5 931 532.8C931.7 530.4 932.2 527.9 932.8 525.5C935.6 514.1 940.1 505.2 946.2 495.2C947.8 492.6 943.5 490.6 941.9 493.2C937.7 500.2 932.9 506.9 930.6 514.9C929.8 517.7 929.1 520.6 928.5 523.6C929.8 516 931.3 508.4 933.9 501.2ZM815.5 540.7C816.5 539.7 817.6 538.7 818.6 537.7C818.2 539.8 820.8 542 822.5 540C822.7 539.7 823 539.4 823.2 539.1C823 539.5 822.9 539.8 822.7 540.2C821.4 543 825.5 545.4 826.8 542.6C827 542.1 827.3 541.6 827.5 541.1C827.7 541.2 828 541.3 828.2 541.4C824.9 549.5 820.4 557.1 814 564.6C807.5 572.3 798.4 575.4 790.1 579.4C791.9 577.6 793.7 575.9 795.8 574.2C802 569.1 807.3 564.1 811.9 557.5C813.6 555 809.5 552.6 807.8 555.1C803.5 561.4 798.4 566.1 792.5 570.9C790.5 572.5 788.6 574.2 786.8 576C794.1 562.6 805.3 550.5 815.5 540.7ZM442.3 557.4C446.9 564.1 452.1 569.1 458.4 574.1C460.4 575.7 462.3 577.4 464.1 579.3C455.7 575.3 446.7 572.1 440.2 564.5C433.8 557 429.3 549.4 426 541.3C426.3 541.2 426.5 541.1 426.7 541C426.9 541.5 427.2 542 427.4 542.5C428.7 545.3 432.8 542.9 431.5 540.1C431.3 539.7 431.2 539.4 431 539C431.3 539.3 431.5 539.6 431.7 539.9C433.4 541.9 436 539.8 435.6 537.6C436.6 538.6 437.7 539.6 438.7 540.6C448.9 550.5 460.1 562.6 467.4 575.9C465.6 574.1 463.7 572.4 461.7 570.8C455.8 566 450.7 561.4 446.4 555C444.7 552.5 440.6 554.9 442.3 557.4ZM323.7 514.9C321.4 507 316.6 500.2 312.4 493.2C310.8 490.6 306.5 492.6 308.1 495.2C314.2 505.1 318.7 514.1 321.5 525.5C322.1 527.9 322.7 530.3 323.3 532.8C315.8 521.5 309.1 510.1 305.6 495.8C305 493.4 304.4 491 303.8 488.6C305.4 490 308.5 488.2 307.5 485.8C307.2 485 306.8 484.2 306.5 483.3C307.8 482.9 308.8 481.6 308.2 480C308.2 479.9 308.1 479.9 308.1 479.8C313.1 486.4 317.6 493.3 320.4 501.2C322.9 508.5 324.4 516 325.9 523.6C325.2 520.6 324.5 517.7 323.7 514.9ZM231.5 422.1C226.8 416.2 222.4 410 218.9 402.8C218.7 402.4 218.5 402 218.3 401.5C219.6 401.2 220.7 399.9 220 398.3C220 398.2 219.9 398.2 219.9 398.1C220.8 398.2 221.7 397.8 222.2 397.2C223.7 399.7 225.1 402.4 226.2 405.2C228.3 410.5 230.3 416 232.4 421.5C232.1 421.6 231.7 421.8 231.5 422.1ZM218.2 440.1C213.7 435.6 209 431 204.5 426.4C206 425.9 207 424.2 205.6 422.7C205.4 422.5 205.2 422.3 205 422.1C205.6 421.1 205.6 419.8 204.5 418.8C204 418.4 203.5 417.9 203 417.5C214.2 423.7 224.3 431.5 233.5 440.6C227.6 436.6 221.3 433 215.4 429.5C212.8 427.9 210.1 431.8 212.7 433.4C223.8 440.1 236.8 446.8 245.6 457C236.4 451.6 226 447.9 218.2 440.1ZM267 473C266.2 466.3 267.2 458.7 267.2 452.9C267.2 444.1 267.6 435.2 267 426.4C266.8 423.3 262.1 424.2 262.3 427.2C263.1 438.7 262.6 450.6 262.3 462.2C262.2 465.4 262.1 469.5 262.5 473.3C257.9 462.3 257.8 446 257.7 437.1C257.6 426.3 259.7 417 262.3 407.4C262.4 409.8 262.3 412.2 261.7 414.5C261 417.4 265.5 419.1 266.2 416.1C266.3 415.7 266.4 415.2 266.4 414.8C267.7 415.8 269.9 415.6 270.2 413.9C272.1 424.2 271.5 434.6 269.9 446.5C268.9 454.2 267 464 267 473ZM159.8 187C158.4 187.1 157.6 188 157.4 189.4C157.3 190.2 157.3 190.9 157.3 191.7C155.2 189.7 153.1 187.7 151.4 185.2C145.1 176.3 140.6 164.8 139.2 154.1C138.6 149.3 147.1 158.3 147.5 158.7C150.9 162.3 153.4 166.5 155.7 170.8C158.6 176.2 160.3 181.6 161.6 187.3C161.1 187 160.4 186.9 159.8 187ZM187.1 169C190.8 166.5 195.1 164.7 199.3 163.2C201.1 162.6 202.9 162 204.6 161.2C205.3 160.9 205.4 160.9 204.6 161.3C202.4 169.9 196.8 176.7 191.1 183.3C188.1 186.8 184.6 190.5 180.7 193.8C180.9 191.5 180.2 189.1 177.8 188.7C175.1 188.2 172.8 189.5 170.6 190.9C170.6 190.8 170.7 190.7 170.7 190.6C171.1 187.5 172 184.6 173.1 181.7C177.2 176.4 183.7 171.4 187.1 169ZM162.8 194.4C162.7 194.3 162.7 194.1 162.7 194C162.8 194.1 162.8 194.2 162.9 194.3L162.8 194.4ZM165.9 158.3C163.5 163.3 164.4 168.3 165.4 173.5C165.4 173.6 165.4 173.6 165.3 173.7C164.9 172.1 164.6 170.6 164.5 169.3C163.4 158.3 162.6 143.5 167.9 133C171.1 138.5 172.2 147 172.6 154.2C169.6 152.8 167 155.9 165.9 158.3ZM145.9 298C146.7 298.7 148 298.9 148.9 297.8C150.9 295.5 153.1 293.8 155.7 292.4C157.7 291.3 159.5 291.2 161.3 291.4C157.4 296.4 151.8 302.3 145.7 302.9C145.9 301.2 146 299.6 145.9 298ZM132.6 283.3C130.7 278.4 129.5 270.1 129.9 263.3C135.1 273.6 140.1 284.7 141 296.1C140.4 298.3 139.8 300.6 139.1 302.8C137.3 298.2 133.2 284.9 132.6 283.3ZM167 21.1C168.5 20.1 170.1 20.6 171.8 22.6C171.2 24 170 25.1001 169.1 26.3001C167.7 28.2001 166.2 29.8 164.9 31.6C164.2 31.5 163.5 31.5 162.8 31.5C160.5 31.6 158.1 32.7001 155.9 33.8001C157 32.4001 158.3 31.1 159.5 29.7C161.9 27.1 164.9 24.2 167 21.1ZM147.8 19.1C148.6 15.8 150.1 13.1 152.2 10.5C153 9.60004 153.9 8.70007 154.8 7.90007C155 7.70007 155.1 7.60007 155.2 7.40007C155.1 8.30007 154.9 9.30009 154.8 10.3001C154.1 10.6001 153.5 11.3001 153.5 12.3001C153.4 15.6001 150.5 19.1001 148.8 21.9001C148 23.2001 147.2 24.5 146.5 25.7C146.5 24 146.4 22.3 146.1 20.7C146.9 20.6 147.6 20.1 147.8 19.1ZM144 41.8001C144.4 40.0001 144.9 37.9 145.3 35.6C145.8 35.5 146.4 35.1 146.7 34.5C149.3 30.3 151.9 26.1001 154.4 21.8001C155 20.8001 155.6 19.8001 156.2 18.8001C156.4 18.7001 156.7 18.7 156.9 18.5C158.4 17.6 161 15.8001 163.2 15.4001C162.2 17.7001 160.2 19.9 159.4 22.2C159.3 22.4 159.3 22.6001 159.3 22.8001C158.6 23.6001 157.9 24.3001 157.4 24.9001C155.9 26.6001 154.4 28.2001 152.9 29.9001C152.1 30.8001 151.1 32.7001 150.1 33.8001C148.6 34.0001 147.3 35.6001 148.2 37.3001C148.3 37.4001 148.3 37.6 148.4 37.7C148.5 37.8 148.5 37.9 148.6 38C146.8 39.4 145.2 41 143.7 42.7C143.8 42.5 143.9 42.1001 144 41.8001ZM143.7 51.5C146.4 46.1 150.6 42.2 155.8 39.2C158.2 37.8 160.8 36.8001 163.5 36.4001C164.3 37.6001 166.6 37.8001 167.6 36.3001C169.1 36.5001 169.9 36.7 171.3 36.6C169.4 52.6 162 64.2001 149.5 74.4001C147.9 75.7001 145.2 78.1 142.4 79.6C144.1 77.5 145.7 75.3001 146.8 72.9001C148.1 70.1001 144 67.7 142.7 70.5C141.3 73.5 139.3 76.1 137 78.5C137.7 74.3 138.1 70 138.5 65.7C138.8 61.1 140 56.8 141.2 52.5C142.1 52.8 143.1 52.6 143.7 51.5ZM125.3 66.3001C125.5 67.4001 126 68.4 126.4 69.5C125.4 67.6 124.5 65.6 123.9 63.7C121.4 56 124 47.3 126.7 40.2C129.9 32 133.9 25.5001 140.1 19.3001C140.8 18.6001 141.6 24.2 141.7 24.5C142.2 28.3 140.5 33.5001 139.9 37.3001C138.8 44.4001 136.6 50.8 134.8 57.7C133.3 63.5 133.3 69.6 132.6 75.5C132.2 74.2 131.9 72.8 131.7 71.5C131.4 69.3 130.3 67.4001 130 65.3001C129.4 62.2001 124.8 63.3001 125.3 66.3001ZM52.1 138.5C48.8 133.7 45.4 128.9 42.3 124.1C40.6 121.6 39.3 118.9 38 116.2C38.8 116.1 39.6 115.6 40.1 114.8C40.1 114.9 40.2 114.9 40.2 115C41.1 116.5 42.8 116.4 43.8 115.5C44 115.9 44.3 116.3 44.5 116.7C48.3 123.7 50.9 130.8 53.1 138.1C52.8 138.1 52.4 138.2 52.1 138.5ZM73.1 129.1C73.3 126 68.6 126 68.4 129.1C67.9 136 67.3 143.2 67.2 150.3C65 137.6 64.4 124.8 65.7 112C65.8 112.7 65.9 113.3 65.9 114C66.1 115.4 67.2 116.1 68.3 116.2C68.4 116.5 68.4 116.8 68.5 117.1C68.9 119 70.9 119.2 72.2 118.3C73.4 124.7 74.5 131.1 75.6 137.4C77.5 148.2 74.6 158.9 73.8 169.5C70.4 156.5 72.2 142 73.1 129.1ZM68.4 186.2C58.7 179.9 48.7 173.5 39.7 166.3C37.3 164.4 34 167.8 36.4 169.7C43.3 175.2 50.8 180 58 185C62.7 188.3 69.6 191.9 74.6 196.3C67.2 191.1 58.2 187.1 51.3 183.6C40.5 178.1 31.7 172.6 24.3 165.2C25.9 165.9 27.2999 164.3 27.1999 162.6C27.5999 162.8 28 163 28.4 163.1C31.2 164.2 32.4 159.6 29.6 158.5C27.4 157.6 25.4 156.3 23.4 154.9C32.7 158.2 41.6 161.9 50.4 168.1C57.6 173.2 71 182.6 77.4 192.7C74.5 190.2 71.2 188 68.4 186.2ZM86.6 270.9C78.9 262.1 74.1 253.3 69.4 242.6C68.2 239.8 64.1 242.2 65.3 245C68.6 252.5 71.4 260.2 76.6 266.7C78.4 269 80.5 271.2 82.5 273.4C77.1 267.9 71.8 262.4 67.3 256.1C62.4 249.3 59.3 241.6 56.7 233.8C56.7 233.8 56.8 233.9 56.8 234C57.7 235.4 59.4 235.3 60.4 234.5C60.9 235.2 61.4 236 61.8 236.7C63.2 238.9 66.5 237.4 66.3 235.3C67.9 237.2 69.6 239 71.2 240.9C80.9 252 86.5 264 91.5 276.6C89.9 274.6 88.2 272.8 86.6 270.9ZM8.90002 329.1C15.2 329.9 22.6 334.2 28.6 338.2C25.7 339.7 26.7 343.7 27.9 346C30.4 350.9 35 353.2 39.7 355.6C39.7 355.7 39.8 355.7 39.8 355.8C38.3 355.1 36.9 354.5 35.8 353.8C26.3 347.9 14 339.6 8.90002 329.1ZM40.5 373.7C29.6 373.4 17.7 370 8.30005 364.6C4.10005 362.2 16.4 360.8 17 360.7C21.9 360.1 26.8 360.7 31.6 361.5C37.7 362.5 43 364.4 48.3 366.7C47.8 367 47.3 367.5 47 368C46.3 369.2 46.5 370.3 47.5 371.3C48.1 371.8 48.7 372.3 49.3 372.7C46.3 373.4 43.5 373.8 40.5 373.7ZM54.3 370.1C54.4 370.1 54.5 370.1 54.6 370.1C54.6 370.2 54.7 370.2 54.7 370.3C54.6 370.2 54.5 370.2 54.3 370.1ZM59.3 354.9C57.3 356.8 56.9 359.3 56.7 361.9C56.6 361.8 56.6 361.7 56.5 361.7C54.3 359.5 52.5 357 50.8 354.4C49.1 347.9 49 339.8 49.2 335.6C49.4 331.1 50.6 326.7 52 322.4C52.6 320.6 53.2 318.8 53.6 317C53.8 316.2 53.8 316.2 53.7 317C59.2 324 61.2 332.5 63.1 341.1C64.1 345.6 64.9 350.7 65.2 355.8C63.3 354.2 61 353.3 59.3 354.9ZM107.2 448.1C102.1 446.7 94.8 442.6 89.6 438.1C101 440.2 112.8 442.9 122.5 449.1C123.9 451 125.3 452.8 126.7 454.6C121.9 453.3 108.9 448.6 107.2 448.1ZM127 446.3C128.1 446.1 129 445.2 128.7 443.8C128.1 440.8 128 438 128.5 435.1C128.9 432.9 129.8 431.4 131.1 430C132.7 436.1 134 444.2 130.8 449.3C129.6 448.2 128.3 447.3 127 446.3ZM208.1 593.2C205.6 594 202.2 596.2 203.2 599.3C196.1 598.1 187.8 596 182.7 592.2C193.7 588.2 208.3 590.7 219.1 593.1C220.4 593.4 221.9 593.9 223.4 594.4C223.3 594.4 223.3 594.4 223.2 594.4C218.2 592.9 213.4 591.4 208.1 593.2ZM230.1 621.1C222.8 626 215.5 630.7 206.7 632C206.2 632.7 206.2 632.7 206.6 632C207.6 630.4 208.4 628.7 209.2 627C211.2 623 213.4 619 216.4 615.6C219.1 612.5 224.8 606.6 230.6 603.2C233.6 602.5 236.7 601.9 239.8 601.9C239.9 601.9 240 601.9 240.1 601.9C238.4 603.9 237 606 237.1 608.8C237.2 611.1 239.6 612.1 241.9 612.2C238 615.5 233.9 618.6 230.1 621.1ZM239.9 588.4C238.5 588.4 237.6 589.1 237.3 590.5C237.2 591.1 237.2 591.8 237.3 592.4C231.8 590.5 226.7 588.1 221.6 584.6C217.6 581.8 213.7 578.9 210.5 575.1C210.1 574.6 202.2 565.1 206.9 566.3C217.3 568.9 228.3 574.8 236.4 582.1C238.6 584.1 240.4 586.4 242.1 588.7C241.5 588.4 240.7 588.4 239.9 588.4ZM340.8 604.2C340.9 602.3 341.2 600.6 342.5 598.7C344.2 596.2 346.2 594.2 348.7 592.5C349.9 591.7 349.9 590.4 349.2 589.5C350.8 589.7 352.4 589.9 354 590C352.7 596 346.2 600.9 340.8 604.2ZM347.8 584.5C336.5 582.2 326.2 576 316.5 569.6C323.3 570 331.4 572.1 336.1 574.6C337.6 575.4 350.3 581 354.7 583.4C352.4 583.8 350.1 584.2 347.8 584.5ZM264.2 497.9C261 497.1 257.8 496.5 254.5 496.3C243.7 495.6 233.3 494.8 222.6 493.2C219.6 492.7 219.2 497.5 222.2 497.9C232.8 499.5 243.6 499.4 254.1 501C257.4 501.5 260.5 502.2 263.6 503C254.2 504.1 244.8 505.9 235.5 504.6C226.3 503.3 217.1 502 208.1 499.5C208.5 498.5 208.2 497.2 207.1 496.7C209.2 496.1 210 492.9 207.4 492.2C207.2 492.1 207 492.1 206.7 492C208.2 491 208 487.9 205.6 487.6C202.8 487.2 200 486.9 197.3 486.5C220.5 486.2 243 488.7 264.2 497.9ZM211.1 504.2C217 506.1 223.1 507.6 229.5 508.5C247.5 511.1 264.5 507 282.3 509.7C282.8 509.9 283.3 510.1 283.8 510.3C284.5 510.6 285.2 510.5 285.7 510.2C285.8 510.2 286 510.2 286.1 510.2C286.3 510.3 286.5 510.5 286.7 510.6C286.9 510.8 287.1 510.9 287.3 510.9C294.1 518.1 301.1 525.2 307.8 532.2C317.2 542.1 327.2 551.1 337.3 560C337.4 560.1 337.4 560.2 337.5 560.3C307.9 552.3 278.8 542.5 251.2 528.9C236.6 521.8 223.3 513.5 211.1 504.2ZM495.8 635.3C483.4 643.1 470.6 642 458.1 638C457.7 637.7 457.4 637.4 457.1 637.2C457.1 637.2 457 637.2 457 637.1C457.7 637.3 458.3 637.6 458.9 638C461.4 639.7 463.7 635.7 461.3 633.9C462.5 633.6 462.9 632.7 463 631.8C463.2 631.8 463.5 631.8 463.7 631.8C466.8 631.9 466.7 627.1 463.6 627.1C463.5 627.1 463.5 627.1 463.4 627.1C465.9 626.1 468.3 625 470.7 623.8C486.1 616.6 498.6 613.3 513 612C510.2 613.3 507.4 614.7 504.4 616.1C493.9 620.9 484.8 626 473.1 627C470.1 627.3 470.1 632 473.2 631.7C481.6 631 490.7 629 498.1 624.6C504.2 620.9 511.9 616.3 519.3 614.5C511.6 621.5 504.8 629.7 495.8 635.3ZM783.3 623.9C785.7 625 788.2 626.1 790.6 627.2C790.5 627.2 790.5 627.2 790.4 627.2C787.4 627.3 787.3 632 790.3 631.9C790.5 631.9 790.8 631.9 791 631.9C791 632.8 791.5 633.7 792.7 634C790.3 635.7 792.6 639.8 795.1 638.1C795.7 637.7 796.4 637.4 797 637.2C797 637.2 796.9 637.2 796.9 637.3C796.7 637.5 796.3 637.8 795.9 638.1C783.4 642.1 770.6 643.1 758.2 635.4C749.3 629.8 742.4 621.6 734.6 614.7C742.1 616.6 749.7 621.1 755.8 624.8C763.2 629.2 772.2 631.2 780.7 631.9C783.7 632.2 783.8 627.4 780.8 627.2C769.1 626.2 760 621 749.5 616.3C746.5 614.9 743.7 613.5 740.9 612.2C755.4 613.5 768 616.7 783.3 623.9ZM1037.9 615.5C1040.9 618.9 1043.1 622.9 1045.1 626.9C1045.9 628.6 1046.7 630.3 1047.7 631.9C1048.1 632.6 1048.1 632.6 1047.6 631.9C1038.8 630.7 1031.4 626 1024.2 621C1020.4 618.4 1016.2 615.3 1012.6 611.9C1014.9 611.8 1017.2 610.8 1017.4 608.5C1017.5 605.7 1016.1 603.6 1014.4 601.6C1014.5 601.6 1014.6 601.6 1014.7 601.6C1017.8 601.6 1020.8 602.2 1023.9 602.9C1029.4 606.5 1035.1 612.4 1037.9 615.5ZM1071.4 592.2C1066.3 596 1058 598.1 1050.9 599.3C1052 596.2 1048.5 594 1046 593.2C1040.8 591.4 1035.9 592.9 1030.9 594.5C1030.8 594.5 1030.8 594.5 1030.7 594.5C1032.2 594 1033.7 593.5 1035 593.2C1045.8 590.7 1060.4 588.2 1071.4 592.2ZM1017.7 582C1025.8 574.7 1036.7 568.9 1047.2 566.2C1051.9 565 1044 574.5 1043.6 575C1040.5 578.8 1036.6 581.8 1032.5 584.5C1027.4 588 1022.3 590.4 1016.8 592.3C1016.9 591.7 1017 591 1016.8 590.4C1016.5 589 1015.6 588.3 1014.2 588.3C1013.4 588.3 1012.7 588.4 1011.9 588.5C1013.7 586.2 1015.5 584 1017.7 582ZM911.7 598.8C913 600.6 913.3 602.4 913.4 604.3C908 601 901.5 596.1 900.2 590.2C901.8 590.1 903.4 590 905 589.7C904.4 590.6 904.4 591.9 905.5 592.7C908 594.3 910 596.3 911.7 598.8ZM918 574.6C922.6 572.1 930.7 570 937.6 569.6C927.9 576 917.6 582.2 906.3 584.5C904 584.1 901.7 583.8 899.4 583.4C903.8 581.1 916.5 575.5 918 574.6ZM1056.9 486.5C1054.1 486.8 1051.3 487.2 1048.6 487.6C1046.2 487.9 1046 491 1047.5 492C1047.3 492.1 1047.1 492.1 1046.8 492.2C1044.3 492.8 1045.1 496.1 1047.1 496.7C1045.9 497.3 1045.7 498.5 1046.1 499.5C1037.2 502 1028 503.3 1018.7 504.6C1009.4 505.9 1000 504 990.6 503C993.6 502.2 996.7 501.5 1000.1 501C1010.6 499.4 1021.4 499.5 1032 497.9C1035 497.4 1034.6 492.7 1031.6 493.2C1020.9 494.9 1010.5 495.6 999.7 496.3C996.4 496.5 993.2 497.1 990 497.9C1011.2 488.7 1033.7 486.2 1056.9 486.5ZM916.7 560.4C916.8 560.3 916.8 560.2 916.9 560.1C927.1 551.2 937 542.2 946.4 532.3C953.1 525.3 960.1 518.3 966.9 511C967.1 510.9 967.3 510.8 967.5 510.7C967.7 510.6 967.9 510.4 968.1 510.3C968.2 510.3 968.3 510.3 968.5 510.3C969 510.6 969.7 510.7 970.4 510.4C970.9 510.2 971.4 510 971.9 509.8C989.7 507.1 1006.7 511.1 1024.7 508.6C1031.2 507.7 1037.2 506.1 1043.1 504.3C1030.9 513.5 1017.6 521.8 1003 529C975.4 542.5 946.3 552.4 916.7 560.4ZM1123.4 449.3C1120.2 444.1 1121.5 436.1 1123.1 430C1124.3 431.4 1125.3 432.9 1125.7 435.1C1126.2 438.1 1126.1 440.9 1125.5 443.8C1125.2 445.2 1126.1 446.1 1127.2 446.3C1125.9 447.3 1124.6 448.2 1123.4 449.3ZM1164.5 438.1C1159.3 442.6 1152 446.6 1146.9 448.1C1145.2 448.6 1132.2 453.3 1127.4 454.6C1128.8 452.8 1130.2 450.9 1131.6 449.1C1141.4 442.9 1153.1 440.2 1164.5 438.1ZM1214.6 355.5C1219.3 353.1 1223.8 350.9 1226.4 345.9C1227.6 343.6 1228.6 339.6 1225.7 338.1C1231.7 334.1 1239.1 329.8 1245.4 329C1240.2 339.5 1228 347.9 1218.6 353.6C1217.5 354.3 1216.1 355 1214.6 355.6C1214.5 355.6 1214.6 355.6 1214.6 355.5ZM1199.4 370.3C1199.4 370.2 1199.5 370.2 1199.5 370.1C1199.6 370.1 1199.7 370.1 1199.8 370.1C1199.7 370.2 1199.6 370.2 1199.4 370.3ZM1197.7 361.7C1197.6 361.8 1197.6 361.9 1197.5 361.9C1197.3 359.3 1196.9 356.8 1194.9 354.9C1193.2 353.3 1190.8 354.2 1189.1 355.7C1189.3 350.6 1190.2 345.5 1191.2 341C1193 332.4 1195.1 323.9 1200.6 316.9C1200.5 316.1 1200.5 316.1 1200.7 316.9C1201.1 318.7 1201.7 320.5 1202.3 322.3C1203.6 326.6 1204.8 331 1205.1 335.5C1205.3 339.7 1205.2 347.8 1203.5 354.3C1201.7 357 1199.9 359.5 1197.7 361.7ZM1245.9 364.6C1236.6 369.9 1224.6 373.4 1213.7 373.7C1210.7 373.8 1207.8 373.4 1205 372.9C1205.6 372.5 1206.2 372 1206.8 371.5C1207.8 370.5 1208 369.4 1207.3 368.2C1207 367.6 1206.5 367.2 1206 366.9C1211.3 364.5 1216.6 362.6 1222.7 361.7C1227.5 360.9 1232.4 360.3 1237.3 360.9C1237.8 360.8 1250.1 362.2 1245.9 364.6Z" fill="#A59D9B"/>
</svg>
